<svg xmlns="http://www.w3.org/2000/svg" xmlns:xlink="http://www.w3.org/1999/xlink" width="786.3063430786133" height="767.9193725585938" viewBox="0 0 786.3063430786133 767.9193725585938" fill="none">
<path d="M377.846 335.479C378.306 334.779 378.966 334.409 379.826 334.369C377.456 338.399 374.856 342.299 372.396 346.269C370.706 349.269 367.266 350.479 364.686 352.529C364.996 351.089 366.256 350.309 367.346 349.479C372.416 346.179 374.316 340.119 377.846 335.479Z"   fill="#FDFAF5" >
</path>
<path d="M132.416 5.17939C144.996 2.65938 157.726 0.199371 170.596 0.119384C172.446 0.539383 174.296 1.00938 176.216 1.03939C319.896 1.06939 463.576 1.11939 607.266 1.04938C611.146 1.18938 615.076 1.19937 618.846 0.119384C620.286 -0.0906216 621.756 0.089386 623.226 0.0993805L622.886 0.359375C622.386 0.739379 621.406 1.49938 620.906 1.88938C630.816 2.20938 640.676 3.68938 650.326 5.89939C651.916 6.40938 653.526 5.96938 655.026 5.34938C659.716 6.34938 664.206 8.09938 668.856 9.28939L668.666 9.69937C668.516 9.99938 668.226 10.6194 668.076 10.9294C670.946 11.7094 673.996 13.9294 677.006 12.5694C720.126 29.1794 755.506 64.3294 772.796 107.139C771.736 108.759 772.466 110.539 773.036 112.169C777.666 124.149 780.916 136.669 782.536 149.419C782.886 148.849 783.566 147.699 783.916 147.129C785.056 155.469 786.156 163.899 786.126 172.319C785.616 174.179 785.026 176.059 785.076 178.019C785.296 307.369 785.096 436.709 785.186 566.049C785.286 588.079 785.546 610.399 780.276 631.949C777.006 645.709 772.436 659.209 765.886 671.769C765.196 673.369 763.806 675.019 764.656 676.859C751.546 701.439 731.886 722.329 708.806 737.839L708.526 737.869C704.406 737.869 701.316 740.869 697.886 742.689C690.806 747.009 683.116 750.119 675.686 753.739C676.086 753.909 676.876 754.229 677.266 754.399C672.406 756.589 667.286 758.169 662.236 759.859L661.976 759.749C659.916 758.339 657.536 759.539 655.386 759.979C648.716 761.829 641.966 763.499 635.056 764.109C635.316 764.539 635.846 765.389 636.106 765.819C627.216 766.859 618.306 767.879 609.336 767.889C465.626 767.949 321.907 767.879 178.196 767.919C171.436 767.849 164.676 767.269 157.966 766.529C159.196 766.349 160.436 766.139 161.656 765.889C159.006 763.919 155.196 764.559 152.356 765.819C152.156 765.899 151.746 766.059 151.546 766.129L151.676 765.699C151.776 765.329 151.996 764.579 152.106 764.209C142.116 762.929 132.316 760.409 122.696 757.489C121.306 756.929 119.826 757.129 118.426 757.449C117.326 757.459 116.366 756.839 115.376 756.479L116.576 755.609C108.636 751.839 100.326 748.859 92.6962 744.429C90.6862 743.639 88.6162 741.439 86.3562 742.609C61.3262 728.169 40.3762 707.059 25.3462 682.419L25.6262 682.099C27.0362 680.989 25.5962 679.059 24.1062 679.179L23.3362 679.049C23.2162 678.719 22.9762 678.059 22.8562 677.729C24.0662 675.169 21.6162 672.839 20.7662 670.559C18.5962 667.099 17.8462 662.549 14.2962 660.139C7.31615 644.689 3.46615 627.879 1.28615 611.089C1.13615 606.609 -0.0238495 602.159 0.326149 597.679C0.916153 595.169 1.22615 592.589 1.14616 590.019C1.33615 455.349 1.15615 320.679 1.22615 186.019C1.16615 179.489 1.54615 172.909 0.326149 166.459C0.696151 156.019 2.26615 145.599 4.54615 135.399C4.92615 135.589 5.67615 135.969 6.04615 136.159C8.36615 125.709 11.6462 115.449 16.0362 105.689C16.7062 103.929 17.8862 102.029 16.8362 100.159C25.2362 81.9594 36.9562 65.2694 51.2162 51.1994C51.2762 51.1394 51.3962 51.0194 51.4562 50.9594C62.0662 40.1694 74.2462 30.8694 87.5062 23.5994C89.5762 24.5994 91.4262 22.8494 93.2362 22.0694C98.4062 19.1094 104.046 17.1194 109.296 14.3294L108.506 13.3994L108.286 13.1294C109.006 12.9194 109.746 12.7594 110.486 12.6294C112.116 12.8894 113.796 13.0294 115.346 12.2994C121.216 10.0294 127.276 8.27938 133.386 6.74938C133.196 6.43938 132.826 5.83939 132.636 5.52938L132.416 5.17939ZM472.096 67.9394C467.596 73.2694 464.586 79.6594 460.946 85.5794C478.956 97.1694 496.536 109.439 514.716 120.759C514.996 120.859 515.546 121.059 515.826 121.159C516.126 120.629 516.726 119.569 517.036 119.039L516.556 120.549L517.926 120.009C521.166 115.039 524.626 110.029 526.836 104.489L525.386 104.939C527.106 101.519 529.396 98.0594 529.256 94.0794C529.416 88.6194 527.496 82.5594 522.726 79.4494C515.996 74.8294 508.946 70.7194 502.186 66.1494C498.916 64.0194 495.716 61.6394 491.986 60.3494C484.536 58.6794 477.066 62.5694 472.096 67.9394ZM354.516 74.2594C346.456 77.6294 340.696 84.9894 336.806 92.5794C334.016 97.4994 334.916 103.729 338.136 108.209C330.996 113.519 324.946 120.159 318.206 125.959C302.876 140.659 287.837 155.659 273.126 170.969C262.467 182.639 251.066 195.489 249.436 211.929C248.306 234.599 249.206 257.339 248.966 280.029C248.646 285.369 248.096 290.789 246.086 295.799C242.736 304.099 236.066 310.869 228.096 314.819L228.596 313.599C224.056 314.449 220.266 317.329 215.846 318.559C214.206 319.309 211.916 319.389 211.046 321.209L212.436 321.429C200.956 325.229 190.776 332.689 183.536 342.369C182.686 340.369 182.216 338.229 182.296 336.059C182.166 318.339 182.446 300.599 181.686 282.899C180.456 287.579 181.556 292.489 180.616 297.239C179.986 288.139 180.466 279.009 180.116 269.909C177.106 258.229 167.476 249.539 157.096 244.129L158.576 244.289C158.326 243.879 157.826 243.069 157.576 242.659C147.626 237.629 135.946 238.379 125.926 233.579L126.156 234.889C123.166 233.159 120.776 230.549 118.856 227.709L119.296 226.289C117.316 221.129 115.086 215.749 115.636 210.089C116.166 207.249 117.156 204.509 117.536 201.639L116.386 202.189C121.126 191.749 129.596 183.499 133.836 172.809L133.816 174.429C135.266 173.769 135.496 172.109 135.986 170.789C137.766 165.099 137.806 159.049 137.586 153.149C137.476 145.569 134.056 138.589 131.346 131.729C132.236 127.869 133.156 123.839 132.076 119.909C131.026 114.829 127.746 110.659 124.086 107.159L125.566 107.399C122.736 103.249 117.056 101.739 112.246 101.779C110.876 102.109 108.446 101.289 108.006 103.149C108.606 103.209 109.826 103.339 110.436 103.399C103.286 104.509 97.1062 109.439 94.5162 116.199L94.5862 114.619C91.4162 116.749 91.6262 121.609 91.2562 125.109C92.0262 129.379 92.5862 134.889 96.6162 137.349L96.4262 135.869C98.5062 138.779 101.166 141.289 104.466 142.769L102.786 142.589C104.616 146.069 110.436 144.459 111.786 148.339C113.606 153.669 115.396 159.429 114.036 165.089C113.426 168.859 110.586 171.759 109.766 175.469L111.086 174.989C105.886 184.659 98.5062 193.349 95.7562 204.189C93.5962 213.799 94.7862 224.149 99.2162 232.979C104.026 243.759 113.806 251.809 124.866 255.609C130.966 257.309 137.496 257.219 143.376 259.749C142.746 259.759 141.476 259.779 140.836 259.779C143.126 262.069 146.696 262.269 149.396 263.989C153.226 265.659 155.436 269.409 158.876 271.609L158.586 270.009C161.556 274.119 162.486 279.289 162.336 284.269C161.946 284.539 161.146 285.079 160.746 285.349C159.816 289.859 160.386 294.519 160.236 299.089C160.376 318.279 159.956 337.479 160.456 356.659C154.696 360.769 150.056 366.839 148.916 373.959C148.616 374.069 148.026 374.289 147.726 374.399C134.426 375.719 120.876 372.549 107.706 375.569C96.6962 378.759 86.5262 384.929 78.9162 393.529C78.1562 394.469 77.2162 395.379 76.9962 396.629C72.7262 401.599 70.4262 407.969 68.7562 414.229L68.4662 412.879C66.3662 414.909 66.9662 418.359 66.4062 421.039C65.9662 433.909 66.4362 446.799 66.3862 459.669C61.1262 462.839 56.2562 467.579 55.3362 473.929C55.2062 478.519 54.6362 483.369 56.7562 487.639C59.0462 493.399 64.5562 497.249 70.4662 498.609L69.1262 498.719C70.0362 501.209 74.0262 500.249 76.3062 500.719C81.8962 500.109 88.3462 498.509 91.8162 493.719L90.3462 493.969C95.0862 489.629 97.7762 483.359 98.1262 476.989C97.6862 471.249 95.5662 465.059 90.5562 461.749C88.6662 460.319 85.4762 459.329 86.2162 456.349L86.8562 455.729C87.6162 447.219 87.0662 438.629 87.2162 430.089C87.0262 427.299 87.7162 424.239 86.2962 421.699C86.4462 418.519 87.8762 415.599 88.6462 412.569L88.8962 412.469C93.1662 402.199 103.366 395.119 114.106 393.079C126.846 392.919 139.596 393.079 152.346 393.009C154.926 396.179 158.086 398.859 161.616 400.939L160.476 400.649C161.996 404.299 161.046 408.269 161.226 412.089C161.396 422.839 160.856 433.619 161.686 444.339C161.986 443.719 162.586 442.459 162.886 441.839C163.496 446.219 162.876 450.719 164.166 455.009C166.376 465.209 173.566 473.289 180.976 480.229C188.996 487.949 197.376 495.319 205.006 503.439C188.316 520.179 171.916 537.209 155.046 553.769C148.366 561.059 141.166 567.849 134.226 574.889C125.166 583.529 116.866 592.939 107.696 601.469C106.306 602.909 104.206 601.659 102.536 601.589C93.3362 599.109 83.4362 606.079 81.3962 615.109C80.2462 618.699 80.9862 622.469 81.3962 626.109C83.0962 636.209 93.1962 643.719 103.306 642.929C114.846 641.269 123.576 629.069 121.536 617.639C121.446 616.289 120.466 614.549 121.776 613.509C138.696 596.109 156.196 579.289 173.026 561.799C186.466 548.919 199.426 535.539 212.486 522.279C214.516 520.169 216.686 518.169 219.256 516.729C232.256 529.179 244.406 542.529 257.786 554.599C262.246 559.069 267.016 563.399 270.186 568.939L268.896 568.479C270.686 573.149 272.706 577.939 272.226 583.069C272.467 586.109 271.266 589.669 273.226 592.319C273.136 607.429 273.027 622.559 274.116 637.649C270.316 640.029 266.326 642.939 264.696 647.279C259.236 657.929 263.626 672.519 273.837 678.669L273.846 678.859C278.826 681.799 284.726 681.059 290.236 680.899C297.106 679.539 303.936 675.479 306.926 668.939L306.866 668.699C307.636 667.159 308.056 665.299 309.527 664.239C322.246 664.369 334.996 664.069 347.726 663.889C359.837 663.049 371.606 656.619 379.126 647.039L378.706 648.559C381.676 647.129 382.846 643.809 384.306 641.089C386.706 634.709 387.926 627.709 387.076 620.899L386.266 621.789C386.796 596.889 386.407 571.979 386.206 547.079C386.366 540.829 385.696 534.199 388.616 528.439L388.826 528.359C391.296 524.869 394.086 521.359 398.066 519.529L397.806 519.129C400.906 518.449 404.056 517.989 407.236 518.139C429.886 518.499 452.536 518.319 475.176 518.339C477.156 518.179 477.746 520.339 478.526 521.709L478.486 522.009C480.406 527.189 485.166 530.729 489.996 533.059C489.596 541.659 490.296 550.299 489.706 558.899C488.996 570.269 489.316 581.659 489.216 593.049C489.186 596.379 488.706 599.819 487.046 602.779C483.106 610.149 476.576 615.569 470.926 621.569C464.806 628.169 458.326 634.469 452.566 641.399C451.816 642.149 451.236 643.399 450.016 643.419C445.686 643.839 441.156 643.789 437.296 646.089C431.366 648.699 427.096 654.499 426.436 660.959C424.716 671.479 432.936 681.819 443.106 683.879C453.016 685.189 463.366 678.779 466.636 669.339C468.196 664.349 466.726 659.139 466.256 654.179C472.576 647.469 478.946 640.799 485.406 634.209C492.516 626.609 501.136 619.879 505.336 610.069C508.476 603.119 507.466 595.329 507.776 587.939C508.406 569.709 508.126 551.469 508.316 533.239C514.496 530.659 518.646 524.949 520.886 518.829L520.806 520.229L521.836 519.829C523.906 514.719 524.046 508.679 521.606 503.669C520.696 501.719 520.086 499.299 517.796 498.559L518.156 499.999C515.706 496.819 512.596 494.189 509.166 492.119L510.136 492.529C509.576 490.379 509.076 488.199 509.126 485.969C509.226 456.619 509.086 427.269 509.296 397.909C514.996 395.409 519.746 390.759 522.226 385.019C552.936 385.449 583.616 383.269 614.326 384.319C627.006 384.319 639.676 384.389 652.356 384.309C655.196 390.299 660.156 395.289 666.376 397.739C665.906 415.839 666.846 433.949 666.766 452.059C666.716 459.839 668.196 468.059 664.746 475.379C661.936 483.289 654.836 488.289 649.246 494.129C638.336 505.159 627.396 516.179 616.806 527.519C609.496 535.029 605.836 545.659 606.216 556.069C605.606 569.379 606.266 582.699 606.236 596.019C606.406 602.469 605.486 609.149 607.836 615.339C610.446 623.819 617.566 629.579 623.346 635.879C628.926 642.299 635.126 648.139 641.046 654.229C643.426 656.179 641.706 659.469 641.826 662.049C640.736 670.949 645.666 680.729 654.286 683.909C663.496 686.329 674.216 681.899 678.736 673.439C682.366 665.239 680.726 654.519 673.596 648.689C668.936 644.579 662.536 643.559 656.526 643.979C648.426 634.979 639.056 627.199 631.066 618.099C627.636 614.129 624.386 609.489 624.576 603.999C624.586 588.659 624.166 573.329 624.286 557.989C624.336 549.879 628.186 542.209 633.876 536.559C645.786 524.189 657.966 512.059 670.036 499.829C676.676 492.079 684.386 483.829 685.116 473.099C684.576 448.009 685.446 422.879 684.846 397.789C690.206 395.729 694.896 391.849 697.666 386.789C699.626 388.189 699.826 385.179 700.526 384.129C702.366 378.599 702.756 372.579 701.026 366.969L699.756 366.809L699.906 368.259C697.776 360.449 692.236 353.709 684.756 350.499C684.996 349.019 685.156 347.529 685.206 346.029C685.126 318.229 685.216 290.429 684.916 262.629C689.356 260.829 693.066 257.629 696.096 253.979L695.826 255.519C697.856 254.569 698.896 252.519 699.896 250.649C702.066 246.429 703.606 241.759 703.376 236.969C703.046 235.659 703.906 233.339 702.106 232.929L701.766 234.219C699.806 224.889 693.206 216.569 684.296 213.009C685.636 206.819 684.506 200.359 684.966 194.059C684.856 178.059 685.836 161.999 684.456 146.039C685.446 143.349 688.206 141.859 689.946 139.659C693.906 135.529 695.496 129.679 695.336 124.059C695.546 115.279 688.716 107.199 680.306 105.229C676.376 104.859 672.106 104.379 668.466 106.249C661.266 109.489 655.696 116.919 655.996 125.009C655.756 133.029 660.596 140.389 666.796 145.119C666.676 168.199 666.646 191.289 666.796 214.379C662.296 216.219 658.396 219.319 655.226 222.979L655.436 221.619C651.626 223.129 652.016 229.809 647.146 228.999C636.586 229.309 626.026 229.249 615.466 229.499C603.746 228.909 591.996 229.429 580.286 229.649C574.526 229.049 568.756 229.129 563.006 229.639C549.866 229.279 536.716 229.209 523.576 229.399C522.786 228.129 521.956 226.879 521.066 225.699L520.856 227.209C516.456 215.579 502.706 208.879 490.866 212.579C484.546 215.299 479.166 220.189 475.786 226.169C472.826 226.069 472.806 229.789 472.356 231.899C472.196 237.389 471.236 244.419 475.596 248.489L475.416 246.849C478.026 252.889 482.546 258.119 488.426 261.169C489.596 264.679 489.156 268.409 489.236 272.049C489.296 298.289 489.086 324.539 489.426 350.779C482.776 353.979 477.266 359.699 474.996 366.799C471.856 366.919 472.636 371.709 472.146 374.029C472.966 377.809 471.996 382.779 475.356 385.429L475.466 383.759C477.756 389.619 482.016 394.899 487.826 397.529C488.996 426.739 487.556 456.009 488.646 485.229C488.976 484.599 489.636 483.349 489.966 482.719C490.066 484.269 490.176 485.809 490.266 487.379C488.486 487.209 488.536 491.109 490.286 491.119C485.976 493.269 482.216 496.179 479.336 500.049C478.906 500.039 478.056 500.019 477.636 500.009C474.716 498.489 471.326 499.209 468.186 499.089C446.516 498.999 424.846 499.029 403.176 499.019C399.486 499.029 395.786 498.879 392.126 499.419C392.686 499.659 393.806 500.159 394.366 500.399C386.896 501.479 381.157 506.939 376.566 512.539C371.976 518.169 368.506 525.209 368.346 532.539C367.666 555.679 367.816 578.829 368.256 601.969C367.916 612.719 369.546 624.309 364.076 634.099C361.837 637.059 359.286 639.769 356.217 641.899C348.676 646.329 339.706 645.469 331.316 645.729C323.186 645.659 315.006 646.479 306.916 645.349L306.926 645.289C303.116 640.679 297.796 637.779 292.256 636.009C291.236 622.349 290.976 608.659 291.266 594.949C291.217 584.979 293.126 574.529 289.316 564.989C285.616 555.779 277.636 549.459 271.176 542.269L272.686 542.439C269.486 537.769 264.717 534.469 260.946 530.289C257.196 526.999 254.216 522.739 249.976 520.089L248.526 520.159C244.136 515.959 239.816 511.699 235.596 507.339C243.476 502.989 252.756 504.969 261.266 505.639C270.396 506.139 279.486 507.409 288.657 507.029C298.136 507.579 307.546 504.059 314.936 498.229C317.386 498.849 319.087 496.869 320.587 495.279C321.496 494.179 322.777 492.869 322.096 491.289C325.967 486.899 329.246 482.049 331.976 476.889L331.616 478.609L332.896 477.839C336.116 471.649 338.396 464.699 338.337 457.669L337.256 458.119C338.027 452.769 337.996 447.289 339.587 442.089C341.126 436.499 344.116 431.369 347.986 427.069L347.616 428.669C350.856 426.479 353.496 423.469 355.936 420.429L354.266 420.779C358.236 417.099 362.967 414.379 367.916 412.239C368.266 412.489 368.967 412.989 369.316 413.239C373.956 411.889 378.566 410.409 383.366 409.699C382.666 409.169 381.936 408.729 381.157 408.369C381.866 408.289 383.286 408.109 383.996 408.029L384.316 409.109C397.626 409.209 410.946 408.829 424.266 409.179C428.116 409.439 432.346 408.019 435.856 410.189C426.936 419.169 418.146 428.279 409.506 437.529C405.016 441.959 404.716 450.349 409.986 454.299C412.016 456.269 414.926 456.189 417.556 456.029C416.856 458.429 421.746 456.769 419.156 455.639C419.986 455.379 420.796 455.069 421.586 454.699C423.136 455.859 424.506 454.299 425.546 453.339C428.216 450.639 430.856 447.919 433.486 445.189C434.356 444.109 435.746 442.929 435.126 441.349C437.686 438.509 440.386 435.809 443.046 433.059L442.606 434.639C446.806 432.219 449.256 427.779 452.936 424.719C456.686 420.659 461.196 417.219 464.276 412.609L462.986 412.439C466.256 408.979 470.276 405.849 471.736 401.109C473.336 396.279 471.186 391.069 467.916 387.479C455.916 374.269 443.566 361.399 431.126 348.609C431.796 346.479 429.706 345.099 428.556 343.709C425.196 340.409 421.576 336.079 416.336 336.699C414.766 337.089 411.766 336.039 411.656 338.489L413.426 338.259C408.236 339.839 404.746 345.469 406.506 350.789C408.696 356.279 413.656 359.899 417.326 364.349L417.266 365.759C419.196 368.779 421.716 371.659 424.846 373.479L424.476 371.919C427.826 375.099 431.076 378.399 434.276 381.739L432.776 381.389C433.606 382.659 434.466 383.949 435.296 385.239C430.046 386.399 424.636 385.899 419.306 386.019C406.896 386.129 394.476 385.799 382.076 386.199C382.426 386.569 383.136 387.319 383.496 387.689C370.506 388.839 358.016 393.799 347.326 401.169C335.286 409.509 325.206 421.239 320.566 435.279L320.486 433.799L319.316 434.169C317.756 437.229 317.636 440.769 316.826 444.069C315.456 449.649 316.536 455.509 314.967 461.059C314.266 465.069 311.996 468.509 310.736 472.329L312.087 471.999C307.736 478.559 301.837 483.869 296.096 489.179C283.846 488.109 271.506 488.529 259.286 487.049C251.666 486.409 243.836 484.919 236.286 486.959C230.916 488.359 225.556 489.829 220.316 491.629C212.386 483.979 204.106 476.699 195.966 469.289C190.416 463.379 184.206 457.259 182.306 449.089L183.406 449.579C183.176 444.019 181.986 438.539 182.226 432.959C182.456 422.159 181.716 411.319 182.796 400.549L181.776 400.589C188.996 396.849 194.296 389.889 195.986 381.929C196.026 382.569 196.116 383.849 196.166 384.479C197.876 382.749 197.256 380.159 197.426 377.979C197.386 373.409 197.596 368.039 194.046 364.619L194.106 366.229C193.326 364.849 192.496 363.459 192.456 361.839L192.796 362.319C196.336 356.519 200.686 351.079 206.226 347.069C213.396 341.709 221.576 337.919 229.816 334.519C235.826 332.189 242.136 330.069 247.096 325.779C252.206 321.199 256.756 315.959 260.146 309.959L259.806 311.489C261.806 310.839 262.286 308.619 263.106 306.959C266.876 298.539 268.856 289.269 268.376 280.029C268.116 276.959 269.266 273.429 267.266 270.769C267.226 268.289 267.226 265.819 267.256 263.339C268.837 262.019 268.467 259.909 268.486 258.099C268.196 247.089 268.696 236.069 268.286 225.059C268.166 220.899 269.316 216.839 269.426 212.679L268.217 212.929C270.226 203.969 276.006 196.429 281.926 189.629C291.296 178.729 300.936 168.039 311.486 158.259C324.036 145.569 337.146 133.469 350.676 121.819C353.036 124.369 356.746 125.179 360.106 124.919C369.496 123.609 378.126 118.019 383.446 110.219C386.416 106.009 386.226 100.079 383.446 95.8294C378.846 88.6094 373.186 82.0794 366.926 76.2494C363.706 72.9894 358.616 73.5894 354.516 74.2594ZM452.686 98.8894C450.376 103.309 447.376 107.319 444.706 111.529C428.306 137.349 412.026 163.249 395.536 189.019L395.336 188.419C393.776 187.429 392.226 191.109 394.216 191.109C374.717 222.319 354.256 252.929 334.486 283.969C333.856 281.359 330.646 285.919 333.146 286.049C327.236 296.039 319.916 305.179 314.596 315.509C314.436 317.779 313.706 319.979 313.536 322.239C310.657 336.809 307.606 351.339 304.596 365.879C304.486 366.419 304.256 367.479 304.136 368.009C308.087 370.059 311.967 372.229 315.896 374.319C315.476 374.469 314.646 374.759 314.226 374.909C310.696 373.919 308.027 371.019 304.446 370.099C302.256 372.399 302.496 375.709 301.596 378.559C300.066 383.489 299.907 388.699 298.856 393.739C298.337 396.099 298.236 398.529 298.416 400.939C304.436 397.999 308.736 392.639 314.396 389.159C317.856 386.549 321.476 384.149 324.856 381.439C322.486 379.849 319.886 378.599 317.587 376.909C317.666 376.539 317.837 375.799 317.926 375.429C320.766 376.739 323.286 378.889 326.157 379.979C338.806 370.679 351.916 362.019 364.587 352.759L364.686 352.529C367.266 350.479 370.706 349.269 372.396 346.269C374.856 342.299 377.456 338.399 379.826 334.369L380.036 334.309C388.476 320.989 397.426 307.989 405.516 294.449C418.846 273.429 432.276 252.479 445.776 231.569C466.196 199.079 487.266 166.999 507.436 134.349C500.896 130.039 494.376 125.689 487.756 121.519C476.356 113.539 464.526 106.169 452.686 98.8894Z"   fill="#6A50A3" >
</path>
<path d="M520.336 248.979C521.806 248.999 523.276 249.029 524.756 249.089C528.396 250.749 532.406 249.959 536.256 249.989C564.906 250.439 593.566 249.959 622.226 250.219C632.456 250.359 642.706 249.739 652.926 250.489C655.866 255.889 660.686 260.089 666.396 262.349C667.046 278.899 666.566 295.479 666.756 312.029C666.526 324.709 666.996 337.389 666.726 350.069C659.726 352.889 653.716 358.559 651.446 365.869C630.046 365.299 608.626 366.189 587.216 365.949C565.506 365.809 543.776 365.879 522.066 366.119C519.976 360.339 515.706 355.549 510.436 352.469C510.176 342.659 510.316 332.839 510.116 323.029C509.016 304.059 509.666 285.059 509.506 266.069C509.496 264.409 509.366 262.709 508.426 261.299C513.246 258.079 516.986 253.649 520.336 248.979Z"   fill="#6A50A3" >
</path>
<path d="M170.596 0.11937C297.796 -0.120636 425.006 0.0893707 552.216 0.0093689C574.426 0.0893707 596.636 -0.120636 618.846 0.11937C615.076 1.19936 611.146 1.18936 607.266 1.04936C463.576 1.11937 319.896 1.06937 176.216 1.03937C174.296 1.00937 172.446 0.539368 170.596 0.11937Z"   fill="#462690" >
</path>
<path d="M620.906 1.88937C621.406 1.49937 622.386 0.73938 622.886 0.359375C633.736 0.949371 644.476 2.75939 655.026 5.34938C653.526 5.96938 651.916 6.40938 650.326 5.89938C640.676 3.68937 630.816 2.20938 620.906 1.88937Z"   fill="#5A3E9A" >
</path>
<path d="M110.486 12.6294C117.626 9.58943 125.056 7.15942 132.636 5.52942C132.826 5.83943 133.196 6.43942 133.386 6.74942C127.276 8.27942 121.216 10.0294 115.346 12.2994C113.796 13.0294 112.116 12.8894 110.486 12.6294Z"   fill="#553A98" >
</path>
<path d="M668.076 10.9294C668.226 10.6194 668.516 9.99934 668.666 9.69934C671.586 10.1794 674.256 11.5494 677.006 12.5694C673.996 13.9294 670.946 11.7094 668.076 10.9294Z"   fill="#573C9A" >
</path>
<path d="M87.5062 23.5994C94.2362 19.6794 101.266 16.2494 108.506 13.3994L109.296 14.3294C104.046 17.1194 98.4062 19.1094 93.2362 22.0694C91.4262 22.8494 89.5761 24.5994 87.5062 23.5994Z"   fill="#563A98" >
</path>
<path d="M443.046 433.059C449.556 426.049 456.286 419.259 462.986 412.439L464.276 412.609C461.196 417.219 456.686 420.659 452.936 424.719C449.256 427.779 446.806 432.219 442.606 434.639L443.046 433.059Z"   fill="#563A98" >
</path>
<path d="M51.2161 51.1993C51.2761 51.1393 51.3962 51.0193 51.4562 50.9594C51.3962 51.0193 51.2761 51.1393 51.2161 51.1993Z"   fill="#361E89" >
</path>
<path d="M472.096 67.9394C477.066 62.5694 484.536 58.6794 491.986 60.3494C495.716 61.6394 498.916 64.0194 502.186 66.1494C508.946 70.7194 515.996 74.8294 522.726 79.4494C527.496 82.5594 529.416 88.6194 529.256 94.0794C529.396 98.0594 527.106 101.519 525.386 104.939C522.656 109.679 519.786 114.319 517.036 119.039C516.726 119.569 516.126 120.629 515.826 121.159C515.546 121.059 514.996 120.859 514.716 120.759C496.536 109.439 478.956 97.1694 460.946 85.5794C464.586 79.6594 467.596 73.2694 472.096 67.9394Z"   fill="#F8F4EF" >
</path>
<path d="M413.426 338.259C416.216 337.839 419.316 337.619 421.716 339.409C425.286 341.999 428.006 345.529 431.126 348.609C443.566 361.399 455.916 374.269 467.916 387.479C471.186 391.069 473.336 396.279 471.736 401.109C470.276 405.849 466.256 408.979 462.986 412.439C456.286 419.259 449.556 426.049 443.046 433.059C440.386 435.809 437.686 438.51 435.126 441.35C430.636 445.81 426.716 450.93 421.586 454.7C420.796 455.07 419.986 455.38 419.156 455.64C418.756 455.74 417.956 455.93 417.556 456.03C414.926 456.19 412.016 456.27 409.986 454.3C404.716 450.35 405.016 441.96 409.506 437.529C418.146 428.279 426.936 419.169 435.856 410.189C436.696 409.179 437.456 408.109 438.226 407.039C432.556 407.019 426.906 407.409 421.246 407.509C408.826 408.079 396.406 407.529 383.996 408.029C383.286 408.109 381.866 408.289 381.156 408.369C376.616 409.179 372.156 410.429 367.916 412.239C362.966 414.379 358.236 417.099 354.266 420.779C351.966 422.659 349.876 424.779 347.986 427.069C344.116 431.369 341.126 436.499 339.586 442.09C337.996 447.29 338.026 452.77 337.256 458.12C336.706 464.65 334.726 470.96 331.976 476.89C329.246 482.05 325.966 486.9 322.096 491.29C319.896 493.78 317.536 496.15 314.936 498.23C307.546 504.06 298.136 507.58 288.656 507.03C287.586 504.21 286.236 500.75 288.006 497.94C290.296 494.68 293.246 491.95 296.096 489.18C301.836 483.87 307.736 478.56 312.086 472C319.926 461.22 316.176 447.21 320.566 435.279C325.206 421.239 335.286 409.509 347.326 401.169C358.016 393.799 370.506 388.839 383.496 387.689C391.406 386.949 399.356 387.529 407.286 387.339C417.846 387.159 428.416 387.179 438.976 386.739C437.566 384.929 435.966 383.279 434.276 381.739C431.076 378.399 427.826 375.099 424.476 371.919C422.116 369.379 419.686 366.899 417.326 364.349C413.656 359.899 408.696 356.279 406.506 350.789C404.746 345.469 408.236 339.839 413.426 338.259Z"   fill="#F8F4EF" >
</path>
<path d="M354.516 74.2594C358.616 73.5894 363.706 72.9894 366.926 76.2494C373.186 82.0794 378.846 88.6095 383.446 95.8295C386.226 100.079 386.416 106.009 383.446 110.219C378.126 118.019 369.496 123.609 360.106 124.919C356.746 125.179 353.036 124.369 350.676 121.819C346.526 117.259 341.576 113.379 338.136 108.209C334.916 103.729 334.016 97.4995 336.806 92.5795C340.696 84.9895 346.456 77.6294 354.516 74.2594Z"   fill="#F8F5F0" >
</path>
<path d="M452.686 98.8894C464.526 106.169 476.356 113.539 487.756 121.519C486.516 121.359 485.276 121.259 484.046 121.159C469.106 144.449 454.216 167.769 439.406 191.139C418.996 223.689 398.126 255.929 377.536 288.359C372.286 296.709 366.586 304.759 361.246 313.059C356.356 320.869 351.676 328.819 346.326 336.329C335.866 329.209 324.686 323.139 314.596 315.509C319.916 305.179 327.236 296.039 333.146 286.049C333.486 285.529 334.146 284.489 334.486 283.969C354.256 252.929 374.716 222.319 394.216 191.109C394.546 190.589 395.206 189.539 395.536 189.019C412.026 163.249 428.306 137.349 444.706 111.529C447.376 107.319 450.376 103.309 452.686 98.8894Z"   fill="#F9F5F0" >
</path>
<path d="M16.8362 100.159C17.8862 102.029 16.7062 103.929 16.0361 105.689C11.6462 115.449 8.36615 125.709 6.04615 136.159C5.67615 135.969 4.92616 135.589 4.54615 135.399C7.40615 123.269 11.4361 111.389 16.8362 100.159Z"   fill="#593D99" >
</path>
<path d="M108.006 103.149C108.446 101.289 110.876 102.109 112.246 101.779C117.056 101.739 122.736 103.249 125.566 107.399L124.086 107.159C120.166 104.329 115.296 102.559 110.436 103.399C109.826 103.339 108.606 103.209 108.006 103.149Z"   fill="#5848B4" >
</path>
<path d="M110.436 103.399C115.296 102.559 120.166 104.329 124.086 107.159C127.746 110.659 131.026 114.829 132.076 119.909C133.156 123.839 132.236 127.869 131.346 131.729C130.106 134.749 132.026 137.459 133.116 140.159C137.226 150.529 137.186 162.229 133.836 172.809C129.596 183.499 121.126 191.749 116.386 202.189C112.296 210.24 114.036 220.35 118.856 227.71C120.776 230.55 123.166 233.16 126.156 234.89C135.626 240.41 147.376 239.13 157.096 244.13C167.476 249.54 177.106 258.23 180.116 269.91C180.466 279.01 179.986 288.14 180.616 297.24C180.916 313.43 181.576 329.62 181.126 345.81C180.406 347.54 179.776 349.31 179.126 351.09C177.876 353.9 174.556 352.73 172.156 352.91C169.026 352.74 166.046 353.87 163.176 354.96C163.386 332.96 162.896 310.95 163.246 288.95C163.116 287.36 162.666 285.82 162.336 284.27C162.486 279.29 161.556 274.12 158.586 270.01C154.976 264.83 149.226 261.73 143.376 259.75C137.496 257.22 130.966 257.31 124.866 255.61C113.806 251.81 104.026 243.76 99.2161 232.98C94.7862 224.15 93.5962 213.8 95.7562 204.19C98.5062 193.349 105.886 184.659 111.086 174.989C113.966 170.499 116.846 165.459 116.216 159.919C115.586 154.849 114.366 149.739 111.966 145.199C109.466 144.399 106.976 143.569 104.466 142.769C101.166 141.289 98.5062 138.779 96.4262 135.869C92.4462 130.109 92.0962 122.639 94.5162 116.199C97.1061 109.439 103.286 104.509 110.436 103.399Z"   fill="#F48F41" >
</path>
<path d="M173.266 403.039C176.086 403.069 178.596 401.639 181.216 400.789C181.216 411.889 180.786 422.979 181.116 434.079C181.276 439.089 181.106 444.169 182.306 449.089C184.206 457.259 190.416 463.379 195.966 469.289C204.106 476.699 212.386 483.979 220.316 491.629C214.126 493.959 209.536 498.849 205.006 503.439C197.376 495.319 188.996 487.949 180.976 480.229C173.566 473.289 166.376 465.209 164.166 455.009C162.876 450.719 163.496 446.219 162.886 441.839C162.256 428.339 162.116 414.799 162.936 401.299C166.336 402.089 169.736 403.159 173.266 403.039Z"   fill="#F48F41" >
</path>
<path d="M525.386 104.939L526.836 104.489C524.626 110.029 521.166 115.039 517.926 120.009L516.556 120.549L517.036 119.039C519.786 114.319 522.656 109.679 525.386 104.939Z"   fill="#5A3F9B" >
</path>
<path d="M668.466 106.249C672.106 104.379 676.376 104.859 680.306 105.229C688.716 107.199 695.546 115.279 695.336 124.059C695.496 129.679 693.906 135.529 689.946 139.659C688.206 141.859 685.446 143.349 684.456 146.039C685.836 161.999 684.856 178.059 684.966 194.059C684.506 200.359 685.636 206.82 684.296 213.01C678.536 211.22 672.226 211.84 666.796 214.38C666.646 191.289 666.676 168.199 666.796 145.119C660.596 140.389 655.756 133.029 655.996 125.009C655.696 116.919 661.266 109.489 668.466 106.249Z"   fill="#57A086" >
</path>
<path d="M666.396 262.349C672.256 264.769 678.926 264.429 684.916 262.629C685.216 290.429 685.126 318.229 685.206 346.029C685.156 347.529 684.996 349.019 684.756 350.499C679.086 348.049 672.506 347.999 666.726 350.069C666.996 337.389 666.526 324.709 666.756 312.029C666.566 295.479 667.046 278.899 666.396 262.349Z"   fill="#57A086" >
</path>
<path d="M773.036 112.169C772.466 110.539 771.736 108.759 772.796 107.139C778.106 119.949 781.676 133.449 783.916 147.129C783.566 147.699 782.886 148.849 782.536 149.419C780.916 136.669 777.666 124.149 773.036 112.169Z"   fill="#5A3F9A" >
</path>
<path d="M318.206 125.959C324.946 120.159 330.996 113.519 338.136 108.209C341.576 113.379 346.526 117.259 350.676 121.819C337.146 133.469 324.036 145.569 311.486 158.259C300.936 168.039 291.296 178.729 281.926 189.629C276.006 196.429 270.226 203.969 268.216 212.929C267.706 215.239 267.386 217.589 267.276 219.949C267.126 234.409 267.176 248.879 267.256 263.339C267.226 265.819 267.226 268.289 267.266 270.769C267.856 284.139 266.556 297.959 260.146 309.959C256.756 315.959 252.206 321.199 247.096 325.779C242.136 330.069 235.826 332.189 229.816 334.519C221.576 337.919 213.396 341.709 206.226 347.069C200.686 351.079 196.336 356.519 192.796 362.319L192.456 361.839C191.766 360.329 190.356 359.609 188.826 359.229C188.806 358.399 188.786 357.569 188.776 356.759C185.256 355.449 181.226 354.529 179.126 351.089C179.776 349.309 180.406 347.539 181.126 345.809C181.916 344.639 182.726 343.499 183.536 342.369C190.776 332.689 200.956 325.229 212.436 321.429C217.836 319.669 223.036 317.379 228.096 314.819C236.066 310.869 242.736 304.099 246.086 295.799C248.096 290.789 248.646 285.369 248.966 280.029C249.206 257.339 248.306 234.599 249.436 211.929C251.066 195.489 262.466 182.639 273.126 170.969C287.836 155.659 302.876 140.659 318.206 125.959Z"   fill="#EF785D" >
</path>
<path d="M91.2562 125.109C91.6262 121.609 91.4161 116.749 94.5862 114.619L94.5161 116.199C92.0962 122.639 92.4462 130.109 96.4262 135.869L96.6162 137.349C92.5862 134.889 92.0261 129.379 91.2562 125.109Z"   fill="#5D4BB1" >
</path>
<path d="M439.406 191.139C454.216 167.769 469.106 144.449 484.046 121.159C485.276 121.259 486.516 121.359 487.756 121.519C494.376 125.689 500.896 130.039 507.436 134.349C487.266 166.999 466.196 199.079 445.776 231.569C432.276 252.479 418.846 273.429 405.516 294.449C397.426 307.989 388.476 320.989 380.036 334.309L379.826 334.369C378.966 334.409 378.306 334.779 377.846 335.479C374.316 340.119 372.416 346.179 367.346 349.479C359.926 345.809 353.456 340.509 346.326 336.329C351.676 328.819 356.356 320.869 361.246 313.059C366.586 304.759 372.286 296.709 377.536 288.359C398.126 255.929 418.996 223.689 439.406 191.139Z"   fill="#E4DCD9" >
</path>
<path d="M131.346 131.729C134.056 138.589 137.476 145.569 137.586 153.149C137.806 159.049 137.766 165.099 135.986 170.789C135.496 172.109 135.266 173.769 133.816 174.429L133.836 172.809C137.186 162.229 137.226 150.529 133.116 140.159C132.026 137.459 130.106 134.749 131.346 131.729Z"   fill="#5848B2" >
</path>
<path d="M102.786 142.589L104.466 142.769C106.976 143.569 109.466 144.399 111.966 145.199C114.366 149.739 115.586 154.849 116.216 159.919C116.846 165.459 113.966 170.499 111.086 174.989L109.766 175.469C110.586 171.759 113.426 168.859 114.036 165.089C115.396 159.429 113.606 153.669 111.786 148.339C110.436 144.459 104.616 146.069 102.786 142.589Z"   fill="#5F4BAD" >
</path>
<path d="M0.326149 166.459C1.54615 172.909 1.16615 179.489 1.22615 186.019C1.15615 320.679 1.33615 455.349 1.14616 590.019C1.22615 592.589 0.916153 595.169 0.326149 597.679C-0.283844 573.789 0.176155 549.879 0.0361557 525.979C0.0661545 431.649 0.0461502 337.319 0.0561523 242.989C0.18615 217.479 -0.253845 191.959 0.326149 166.459Z"   fill="#3D208E" >
</path>
<path d="M785.076 178.019C785.026 176.059 785.616 174.179 786.126 172.319C786.486 250.889 786.176 329.469 786.286 408.049C786.286 468.029 786.276 528.009 786.286 587.99C786.706 618.769 779.546 649.829 764.656 676.859C763.806 675.019 765.196 673.369 765.886 671.769C772.436 659.209 777.006 645.709 780.276 631.949C785.546 610.399 785.286 588.079 785.186 566.049C785.096 436.709 785.296 307.369 785.076 178.019Z"   fill="#4A2D92" >
</path>
<path d="M394.216 191.109C392.226 191.109 393.776 187.429 395.336 188.419L395.536 189.019C395.206 189.539 394.546 190.589 394.216 191.109Z"   fill="#4C2F92" >
</path>
<path d="M116.386 202.189L117.536 201.639C117.156 204.509 116.166 207.249 115.636 210.089C115.086 215.749 117.316 221.129 119.296 226.289L118.856 227.709C114.036 220.349 112.296 210.239 116.386 202.189Z"   fill="#5D4AAF" >
</path>
<path d="M490.866 212.579C502.706 208.879 516.456 215.579 520.856 227.209C521.316 228.479 521.796 229.749 522.296 231.019C561.276 230.999 600.246 231.049 639.226 230.999C643.006 230.879 646.846 231.089 650.566 230.309C652.496 228.179 653.506 225.309 655.226 222.979C658.396 219.319 662.296 216.219 666.796 214.379C672.226 211.839 678.536 211.219 684.296 213.009C693.206 216.569 699.806 224.889 701.766 234.219C702.626 241.259 700.386 248.389 696.096 253.979C693.066 257.629 689.356 260.829 684.916 262.629C678.926 264.429 672.256 264.769 666.396 262.349C660.686 260.089 655.866 255.889 652.926 250.489C652.516 250.129 651.676 249.409 651.256 249.049C609.096 249.009 566.926 248.969 524.756 249.089C523.276 249.029 521.806 248.999 520.336 248.979C516.986 253.649 513.246 258.079 508.426 261.299C508.076 263.519 507.916 265.769 507.926 268.029C507.956 295.839 508.616 323.659 508.446 351.469C502.506 348.729 495.486 347.999 489.426 350.779C489.086 324.539 489.296 298.289 489.236 272.049C489.156 268.409 489.596 264.679 488.426 261.169C482.546 258.119 478.026 252.889 475.416 246.849C473.006 240.229 472.346 232.569 475.786 226.169C479.166 220.189 484.546 215.299 490.866 212.579Z"   fill="#ED5B4F" >
</path>
<path d="M489.206 398.169C495.206 400.539 501.926 400.569 508.016 398.439C507.906 429.509 507.916 460.579 508.066 491.659C502.466 489.039 496.046 489.069 490.286 491.119C490.366 489.869 490.356 488.619 490.266 487.379C490.176 485.809 490.066 484.269 489.966 482.719C488.886 454.549 489.626 426.349 489.206 398.169Z"   fill="#ED5B4F" >
</path>
<path d="M268.216 212.929L269.426 212.679C269.316 216.839 268.166 220.899 268.286 225.059C268.696 236.069 268.196 247.089 268.486 258.099C268.466 259.909 268.836 262.019 267.256 263.339C267.176 248.879 267.126 234.409 267.276 219.949C267.386 217.589 267.706 215.239 268.216 212.929Z"   fill="#544AB2" >
</path>
<path d="M647.146 228.999C652.016 229.809 651.626 223.129 655.436 221.619L655.226 222.979C653.506 225.309 652.496 228.179 650.566 230.309C646.846 231.089 643.006 230.879 639.226 230.999C600.246 231.049 561.276 230.999 522.296 231.019C521.796 229.749 521.316 228.479 520.856 227.209L521.066 225.699C521.956 226.879 522.786 228.129 523.576 229.399C536.716 229.209 549.866 229.279 563.006 229.639C568.756 229.129 574.526 229.049 580.286 229.649C591.996 229.429 603.746 228.909 615.466 229.499C626.026 229.249 636.586 229.309 647.146 228.999Z"   fill="#5850B2" >
</path>
<path d="M472.356 231.899C472.806 229.789 472.826 226.069 475.786 226.169C472.346 232.569 473.006 240.229 475.416 246.849L475.596 248.489C471.236 244.419 472.196 237.389 472.356 231.899Z"   fill="#534EB7" >
</path>
<path d="M702.106 232.929C703.906 233.339 703.046 235.659 703.376 236.969C703.606 241.759 702.066 246.429 699.896 250.649C698.896 252.519 697.856 254.569 695.826 255.519L696.096 253.979C700.386 248.389 702.626 241.259 701.766 234.219L702.106 232.929Z"   fill="#5550B4" >
</path>
<path d="M125.926 233.579C135.946 238.379 147.626 237.629 157.576 242.659C157.826 243.069 158.326 243.879 158.576 244.289L157.096 244.129C147.376 239.129 135.626 240.409 126.156 234.889L125.926 233.579Z"   fill="#604CAD" >
</path>
<path d="M524.756 249.089C566.926 248.969 609.096 249.009 651.256 249.049C651.676 249.409 652.516 250.129 652.926 250.489C642.706 249.739 632.456 250.359 622.226 250.219C593.566 249.959 564.906 250.439 536.256 249.989C532.406 249.959 528.396 250.749 524.756 249.089Z"   fill="#4D51BB" >
</path>
<path d="M140.836 259.779C141.476 259.779 142.746 259.759 143.376 259.749C149.226 261.729 154.976 264.829 158.586 270.009L158.876 271.609C155.436 269.409 153.226 265.659 149.396 263.989C146.696 262.269 143.126 262.069 140.836 259.779Z"   fill="#5848B1" >
</path>
<path d="M508.426 261.299C509.366 262.709 509.496 264.409 509.506 266.069C509.666 285.059 509.016 304.059 510.116 323.029C510.316 332.839 510.176 342.659 510.436 352.469C509.936 352.219 508.946 351.719 508.446 351.469C508.616 323.659 507.956 295.839 507.926 268.029C507.916 265.769 508.076 263.519 508.426 261.299Z"   fill="#5A4FB2" >
</path>
<path d="M267.266 270.769C269.266 273.429 268.116 276.959 268.376 280.029C268.856 289.269 266.876 298.539 263.106 306.959C262.286 308.619 261.806 310.839 259.806 311.489L260.146 309.959C266.556 297.959 267.856 284.139 267.266 270.769Z"   fill="#544BB1" >
</path>
<path d="M180.616 297.239C181.556 292.489 180.456 287.579 181.686 282.899C182.446 300.599 182.166 318.339 182.296 336.059C182.216 338.229 182.686 340.369 183.536 342.369C182.726 343.499 181.916 344.639 181.126 345.809C181.576 329.619 180.916 313.429 180.616 297.239Z"   fill="#4C42B9" >
</path>
<path d="M333.146 286.049C330.646 285.919 333.856 281.359 334.486 283.969C334.146 284.489 333.486 285.529 333.146 286.049Z"   fill="#4E3194" >
</path>
<path d="M160.746 285.349C161.146 285.079 161.946 284.539 162.336 284.269C162.026 287.389 161.786 290.529 161.636 293.669C160.666 314.439 161.896 335.249 161.336 356.029L160.456 356.659C159.956 337.479 160.376 318.279 160.236 299.089C160.386 294.519 159.816 289.859 160.746 285.349Z"   fill="#4C44B8" >
</path>
<path d="M162.336 284.269C162.666 285.819 163.116 287.359 163.246 288.949C162.896 310.949 163.386 332.959 163.176 354.959C162.876 355.119 162.276 355.439 161.976 355.599C161.856 334.959 162.196 314.299 161.636 293.669C161.786 290.529 162.026 287.389 162.336 284.269Z"   fill="#FE9D2D" >
</path>
<path d="M161.336 356.029C161.896 335.249 160.666 314.439 161.636 293.669C162.196 314.299 161.856 334.959 161.976 355.599L161.336 356.029Z"   fill="#D47E62" >
</path>
<path d="M215.846 318.559C220.266 317.329 224.056 314.449 228.596 313.599L228.096 314.819C223.036 317.379 217.836 319.669 212.436 321.429L211.046 321.209C211.916 319.389 214.206 319.309 215.846 318.559Z"   fill="#594EAF" >
</path>
<path d="M313.536 322.239C313.706 319.979 314.436 317.779 314.596 315.509C324.686 323.139 335.866 329.209 346.326 336.329C353.456 340.509 359.926 345.809 367.346 349.479C366.256 350.309 364.996 351.089 364.686 352.529L364.586 352.759C351.916 362.019 338.806 370.679 326.156 379.979C323.286 378.889 320.766 376.739 317.926 375.429C317.246 375.049 316.566 374.679 315.896 374.319C311.966 372.229 308.086 370.059 304.136 368.009C304.256 367.479 304.486 366.419 304.596 365.879C304.966 365.589 305.706 364.999 306.076 364.709C309.056 353.039 311.106 341.139 313.736 329.389C314.396 327.019 314.136 324.579 313.536 322.239Z"   fill="#D5CACA" >
</path>
<path d="M313.536 322.239C314.136 324.579 314.396 327.019 313.736 329.389C311.106 341.139 309.056 353.039 306.076 364.709C305.706 364.999 304.966 365.589 304.596 365.879C307.606 351.339 310.656 336.809 313.536 322.239Z"   fill="#E4DCD0" >
</path>
<path d="M411.656 338.489C411.766 336.039 414.766 337.089 416.336 336.699C421.576 336.079 425.196 340.409 428.556 343.709C429.706 345.099 431.796 346.479 431.126 348.609C428.006 345.529 425.286 341.999 421.716 339.409C419.316 337.619 416.216 337.839 413.426 338.259L411.656 338.489Z"   fill="#573B98" >
</path>
<path d="M489.426 350.779C495.486 347.999 502.506 348.729 508.446 351.469C508.946 351.719 509.936 352.219 510.436 352.469C515.706 355.549 519.976 360.339 522.066 366.119C524.446 372.169 524.496 378.929 522.226 385.019C519.746 390.759 514.996 395.41 509.296 397.91C508.976 398.05 508.336 398.309 508.016 398.439C501.926 400.569 495.206 400.54 489.206 398.17C488.856 398.009 488.166 397.689 487.826 397.53C482.016 394.899 477.756 389.619 475.466 383.759C473.776 378.299 473.466 372.319 474.996 366.799C477.266 359.699 482.776 353.979 489.426 350.779Z"   fill="#F7F3EE" >
</path>
<path d="M666.726 350.069C672.506 347.999 679.086 348.049 684.756 350.499C692.236 353.709 697.776 360.449 699.906 368.259C700.846 374.459 700.806 381.169 697.666 386.789C694.896 391.849 690.206 395.729 684.846 397.789C678.956 399.809 672.246 399.789 666.376 397.739C660.156 395.289 655.196 390.299 652.356 384.309C649.826 378.539 649.556 371.869 651.446 365.869C653.716 358.559 659.726 352.889 666.726 350.069Z"   fill="#F7F3EF" >
</path>
<path d="M179.126 351.089C181.226 354.529 185.256 355.449 188.776 356.759C188.786 357.569 188.806 358.399 188.826 359.229C190.356 359.609 191.766 360.329 192.456 361.839C192.496 363.459 193.326 364.849 194.106 366.229C196.116 371.209 196.766 376.609 195.986 381.929C194.296 389.889 188.996 396.849 181.776 400.589L181.216 400.789C178.596 401.639 176.086 403.069 173.266 403.039C169.736 403.159 166.336 402.089 162.936 401.299L161.616 400.939C158.086 398.859 154.926 396.179 152.346 393.009C139.596 393.079 126.846 392.919 114.106 393.079C103.366 395.119 93.1661 402.199 88.8961 412.469L88.6461 412.569C87.7561 412.849 86.7861 413.279 86.5061 414.279C85.2261 417.489 84.9161 421.039 83.1261 424.059C81.7261 423.109 80.3561 422.139 78.9961 421.139C78.8562 423.029 78.4361 424.899 77.2461 426.439C76.3762 425.129 75.5362 423.809 74.7062 422.489C72.9462 422.539 71.1861 422.599 69.4262 422.679C68.8162 417.869 70.7761 413.299 71.8762 408.719C72.8762 404.379 76.4262 401.109 76.9961 396.629C77.2162 395.379 78.1562 394.469 78.9161 393.529C86.5261 384.929 96.6961 378.759 107.706 375.569C120.876 372.549 134.426 375.719 147.726 374.399C148.026 374.289 148.616 374.069 148.916 373.959C150.056 366.839 154.696 360.769 160.456 356.659L161.336 356.029L161.976 355.599C162.276 355.439 162.876 355.119 163.176 354.959C166.046 353.869 169.026 352.739 172.156 352.909C174.556 352.729 177.876 353.899 179.126 351.089Z"   fill="#EF6A57" >
</path>
<path d="M194.046 364.619C197.596 368.039 197.386 373.409 197.426 377.979C197.256 380.159 197.876 382.749 196.166 384.479C196.116 383.849 196.026 382.569 195.986 381.929C196.766 376.609 196.116 371.209 194.106 366.229L194.046 364.619Z"   fill="#544EB3" >
</path>
<path d="M417.326 364.349C419.686 366.899 422.116 369.379 424.476 371.919L424.846 373.479C421.716 371.659 419.196 368.779 417.266 365.759L417.326 364.349Z"   fill="#543797" >
</path>
<path d="M522.066 366.119C543.776 365.879 565.506 365.809 587.216 365.949C608.626 366.189 630.046 365.299 651.446 365.869C649.556 371.869 649.826 378.539 652.356 384.309C639.676 384.389 627.006 384.319 614.326 384.319C583.616 383.269 552.936 385.449 522.226 385.019C524.496 378.929 524.446 372.169 522.066 366.119Z"   fill="#579F86" >
</path>
<path d="M236.286 486.959C243.836 484.919 251.666 486.409 259.286 487.049C271.506 488.529 283.846 488.109 296.096 489.179C293.246 491.949 290.296 494.679 288.006 497.939C286.236 500.749 287.586 504.209 288.656 507.03C279.486 507.41 270.396 506.139 261.266 505.639C252.756 504.97 243.476 502.989 235.596 507.339C229.846 509.92 224.476 513.23 219.256 516.73C216.686 518.17 214.516 520.17 212.486 522.28C199.426 535.54 186.466 548.92 173.026 561.8C156.196 579.29 138.696 596.11 121.776 613.51C120.466 614.55 121.446 616.29 121.536 617.64C123.576 629.07 114.846 641.27 103.306 642.93C93.1961 643.72 83.0962 636.21 81.3962 626.11C80.9862 622.47 80.2461 618.7 81.3962 615.11C83.4361 606.08 93.3361 599.11 102.536 601.59C104.206 601.66 106.306 602.91 107.696 601.47C116.866 592.94 125.166 583.53 134.226 574.889C141.166 567.85 148.366 561.059 155.046 553.769C171.916 537.209 188.316 520.179 205.006 503.439C209.536 498.85 214.126 493.959 220.316 491.629C225.556 489.829 230.916 488.359 236.286 486.959Z"   fill="#579F86" >
</path>
<path d="M472.146 374.029C472.636 371.709 471.856 366.919 474.996 366.799C473.466 372.319 473.776 378.299 475.466 383.759L475.356 385.429C471.996 382.779 472.966 377.809 472.146 374.029Z"   fill="#644BA0" >
</path>
<path d="M699.756 366.809L701.026 366.969C702.756 372.579 702.366 378.599 700.526 384.129C699.826 385.179 699.626 388.189 697.666 386.789C700.806 381.169 700.846 374.459 699.906 368.259L699.756 366.809Z"   fill="#593E99" >
</path>
<path d="M304.446 370.099C308.026 371.019 310.696 373.919 314.226 374.909C314.646 374.759 315.476 374.469 315.896 374.319C316.566 374.679 317.246 375.049 317.926 375.429C317.836 375.799 317.666 376.539 317.586 376.909C319.886 378.599 322.486 379.849 324.856 381.439C321.476 384.149 317.856 386.549 314.396 389.159C308.736 392.639 304.436 397.999 298.416 400.939C298.236 398.529 298.336 396.099 298.856 393.739C299.906 388.699 300.066 383.489 301.596 378.559C302.496 375.709 302.256 372.399 304.446 370.099Z"   fill="#715BA9" >
</path>
<path d="M432.776 381.389L434.276 381.739C435.966 383.279 437.566 384.929 438.976 386.739C428.416 387.179 417.846 387.159 407.286 387.339C399.356 387.529 391.406 386.949 383.496 387.689C383.136 387.319 382.426 386.569 382.076 386.199C394.476 385.799 406.896 386.129 419.306 386.019C424.636 385.899 430.046 386.399 435.296 385.239C434.466 383.949 433.606 382.659 432.776 381.389Z"   fill="#4D3194" >
</path>
<path d="M68.7561 414.229C70.4261 407.969 72.7261 401.599 76.9961 396.629C76.4261 401.109 72.8761 404.379 71.8761 408.719C70.7761 413.299 68.8161 417.869 69.4261 422.679C71.1861 422.599 72.9461 422.539 74.7061 422.489C75.5361 423.809 76.3761 425.129 77.2461 426.439C78.4361 424.899 78.8561 423.029 78.9961 421.139C80.3561 422.139 81.7261 423.109 83.1261 424.059C84.9161 421.039 85.2261 417.489 86.5061 414.279C86.7861 413.279 87.7561 412.849 88.6461 412.569C87.8761 415.599 86.4461 418.519 86.2961 421.699C85.9261 433.239 86.1561 444.799 86.2161 456.349C85.4761 459.329 88.6661 460.319 90.5561 461.749C95.5661 465.059 97.6861 471.249 98.1261 476.989C97.7761 483.359 95.0861 489.629 90.3461 493.969C84.7461 498.249 77.3961 500.029 70.4661 498.609C64.5562 497.249 59.0461 493.399 56.7562 487.639C54.6361 483.369 55.2062 478.519 55.3362 473.929C56.2562 467.579 61.1261 462.839 66.3861 459.669C68.1761 458.299 67.7161 455.969 67.8561 454.019C68.1261 440.759 66.3661 427.379 68.7561 414.229Z"   fill="#EE6052" >
</path>
<path d="M487.826 397.529C488.166 397.689 488.856 398.009 489.206 398.169C489.626 426.349 488.886 454.549 489.966 482.719C489.636 483.349 488.976 484.599 488.646 485.229C487.556 456.009 488.996 426.739 487.826 397.529Z"   fill="#4D4EB8" >
</path>
<path d="M508.016 398.439C508.336 398.309 508.976 398.049 509.296 397.909C509.086 427.269 509.226 456.619 509.126 485.969C509.076 488.199 509.576 490.379 510.136 492.529L509.166 492.119C508.886 491.999 508.346 491.769 508.066 491.659C507.916 460.579 507.906 429.509 508.016 398.439Z"   fill="#484EBC" >
</path>
<path d="M666.376 397.739C672.246 399.789 678.956 399.809 684.846 397.789C685.446 422.879 684.576 448.009 685.116 473.099C684.386 483.829 676.676 492.079 670.036 499.829C657.966 512.059 645.786 524.189 633.876 536.559C628.186 542.209 624.336 549.879 624.286 557.989C624.166 573.329 624.586 588.659 624.576 603.999C624.386 609.489 627.636 614.129 631.066 618.099C639.056 627.199 648.426 634.979 656.526 643.979C662.536 643.559 668.936 644.579 673.596 648.689C680.726 654.519 682.366 665.239 678.736 673.439C674.216 681.899 663.496 686.329 654.286 683.909C645.666 680.729 640.736 670.949 641.826 662.049C641.706 659.469 643.426 656.179 641.046 654.229C635.126 648.139 628.926 642.299 623.346 635.879C617.566 629.579 610.446 623.819 607.836 615.339C605.486 609.149 606.406 602.469 606.236 596.019C606.266 582.699 605.606 569.379 606.216 556.069C605.836 545.659 609.496 535.029 616.806 527.519C627.396 516.179 638.336 505.159 649.246 494.129C654.836 488.289 661.936 483.289 664.746 475.379C668.196 468.059 666.716 459.839 666.766 452.059C666.846 433.949 665.906 415.839 666.376 397.739Z"   fill="#4F8EB8" >
</path>
<path d="M160.476 400.649L161.616 400.939L162.936 401.299C162.116 414.799 162.256 428.339 162.886 441.839C162.586 442.459 161.986 443.719 161.686 444.339C160.856 433.619 161.396 422.839 161.226 412.089C161.046 408.269 161.996 404.299 160.476 400.649Z"   fill="#4344C3" >
</path>
<path d="M181.216 400.789L181.776 400.589L182.796 400.549C181.716 411.319 182.456 422.159 182.226 432.959C181.986 438.539 183.176 444.019 183.406 449.579L182.306 449.089C181.106 444.169 181.276 439.089 181.116 434.079C180.786 422.979 181.216 411.889 181.216 400.789Z"   fill="#4C44BA" >
</path>
<path d="M383.996 408.029C396.406 407.529 408.826 408.079 421.246 407.509C426.906 407.409 432.556 407.019 438.226 407.039C437.456 408.109 436.696 409.179 435.856 410.189C432.346 408.019 428.116 409.439 424.266 409.179C410.946 408.829 397.626 409.209 384.316 409.109L383.996 408.029Z"   fill="#583D99" >
</path>
<path d="M367.916 412.239C372.156 410.429 376.616 409.179 381.156 408.369C381.936 408.729 382.666 409.169 383.366 409.699C378.566 410.409 373.956 411.889 369.316 413.239C368.966 412.989 368.266 412.489 367.916 412.239Z"   fill="#664CA1" >
</path>
<path d="M66.4062 421.039C66.9661 418.359 66.3662 414.909 68.4662 412.879L68.7561 414.229C66.3662 427.379 68.1262 440.759 67.8561 454.019C67.7162 455.969 68.1762 458.299 66.3861 459.669C66.4361 446.799 65.9661 433.909 66.4062 421.039Z"   fill="#4C4DB8" >
</path>
<path d="M347.986 427.069C349.876 424.779 351.966 422.659 354.266 420.779L355.936 420.429C353.496 423.469 350.856 426.479 347.616 428.669L347.986 427.069Z"   fill="#543998" >
</path>
<path d="M86.2962 421.699C87.7161 424.239 87.0261 427.299 87.2161 430.089C87.0662 438.629 87.6162 447.219 86.8561 455.729L86.2161 456.349C86.1562 444.799 85.9262 433.239 86.2962 421.699Z"   fill="#444DBC" >
</path>
<path d="M319.316 434.169L320.486 433.799L320.566 435.279C316.176 447.209 319.926 461.219 312.086 471.999L310.736 472.329C311.996 468.509 314.266 465.069 314.966 461.059C316.536 455.509 315.456 449.649 316.826 444.069C317.636 440.769 317.756 437.229 319.316 434.169Z"   fill="#644AA0" >
</path>
<path d="M421.586 454.699C426.716 450.929 430.636 445.809 435.126 441.349C435.746 442.929 434.356 444.109 433.486 445.189C430.856 447.919 428.216 450.639 425.546 453.339C424.506 454.299 423.136 455.859 421.586 454.699Z"   fill="#553897" >
</path>
<path d="M417.556 456.029C417.956 455.929 418.756 455.739 419.156 455.639C421.746 456.769 416.856 458.429 417.556 456.029Z"   fill="#4A2C90" >
</path>
<path d="M337.256 458.119L338.336 457.669C338.396 464.699 336.116 471.649 332.896 477.839L331.616 478.609L331.976 476.889C334.726 470.959 336.706 464.649 337.256 458.119Z"   fill="#543696" >
</path>
<path d="M490.286 491.119C488.536 491.109 488.486 487.209 490.266 487.379C490.356 488.619 490.366 489.869 490.286 491.119Z"   fill="#454CCC" >
</path>
<path d="M490.286 491.119C496.046 489.069 502.466 489.039 508.066 491.659C508.346 491.769 508.886 491.999 509.166 492.119C512.596 494.189 515.706 496.819 518.156 499.999C521.886 505.469 523.296 512.539 520.886 518.829C518.646 524.949 514.496 530.659 508.316 533.239C502.416 535.259 495.836 535.269 489.996 533.059C485.166 530.729 480.406 527.189 478.486 522.009L478.526 521.709C479.566 519.389 477.776 516.879 475.226 517.269C452.906 516.739 430.566 517.169 408.236 516.989C404.546 516.969 400.706 516.739 397.266 518.309L397.806 519.129L398.066 519.529C394.086 521.359 391.296 524.869 388.826 528.359L388.616 528.439C386.366 528.759 385.856 531.259 385.506 533.129C384.806 538.369 385.426 543.659 385.356 548.929C385.006 569.649 385.386 590.36 385.186 611.069C385.326 614.639 383.716 618.729 386.266 621.789C385.706 630.529 384.926 639.989 379.126 647.039C371.606 656.619 359.836 663.05 347.726 663.889C345.926 663.389 344.116 662.769 342.226 662.849C331.536 663.029 320.846 662.8 310.166 663.059C307.586 663.099 305.576 666.379 306.866 668.699L306.926 668.939C303.936 675.479 297.106 679.539 290.236 680.899C284.726 681.059 278.826 681.8 273.846 678.86L273.836 678.669C273.946 677.699 273.656 676.909 272.966 676.279C270.746 673.839 267.906 671.839 266.536 668.749C265.166 665.659 264.546 662.3 264.186 658.969C263.636 655.039 265.406 651.199 264.696 647.279C266.326 642.939 270.316 640.029 274.116 637.649C274.396 637.459 274.946 637.089 275.226 636.909C275.806 626.919 273.716 617.019 274.336 607.029C273.986 601.209 275.176 595.189 273.286 589.559C273.026 582.619 274.396 575.039 270.186 568.939C267.016 563.399 262.246 559.069 257.786 554.599C244.406 542.529 232.256 529.179 219.256 516.729C224.476 513.229 229.846 509.919 235.596 507.339C239.816 511.699 244.136 515.959 248.526 520.159C256.166 527.439 263.636 534.889 271.176 542.269C277.636 549.459 285.616 555.779 289.316 564.989C293.126 574.529 291.216 584.979 291.266 594.949C290.976 608.659 291.236 622.349 292.256 636.009C297.796 637.779 303.116 640.679 306.926 645.289L306.916 645.349C306.886 645.729 306.826 646.489 306.796 646.869C316.256 647.399 325.746 646.829 335.226 647.069C342.766 647.099 351.246 647.329 357.516 642.439L356.216 641.899C359.286 639.769 361.836 637.059 364.076 634.099L364.536 635.36C370.376 628.119 369.016 618.469 369.586 609.849C368.986 585.889 369.336 561.909 369.246 537.949C369.196 536.099 368.726 534.319 368.346 532.539C368.506 525.209 371.976 518.169 376.566 512.539C381.156 506.939 386.896 501.479 394.366 500.399C412.306 499.729 430.286 500.399 448.236 500.139C458.036 500.039 467.836 500.019 477.636 500.009C478.056 500.019 478.906 500.039 479.336 500.049C482.216 496.179 485.976 493.269 490.286 491.119Z"   fill="#F49041" >
</path>
<path d="M314.936 498.229C317.536 496.149 319.896 493.779 322.096 491.289C322.776 492.869 321.496 494.179 320.586 495.279C319.086 496.869 317.386 498.849 314.936 498.229Z"   fill="#5A3D9B" >
</path>
<path d="M70.4661 498.609C77.3961 500.029 84.7462 498.249 90.3462 493.969L91.8162 493.719C88.3462 498.509 81.8961 500.109 76.3062 500.719C74.0261 500.249 70.0362 501.209 69.1262 498.719L70.4661 498.609Z"   fill="#5851B2" >
</path>
<path d="M392.126 499.419C395.786 498.879 399.486 499.029 403.176 499.019C424.846 499.029 446.516 498.999 468.186 499.089C471.326 499.209 474.716 498.489 477.636 500.009C467.836 500.019 458.036 500.039 448.236 500.139C430.286 500.399 412.306 499.729 394.366 500.399C393.806 500.159 392.686 499.659 392.126 499.419Z"   fill="#3E3BC3" >
</path>
<path d="M517.796 498.559C520.086 499.299 520.696 501.719 521.606 503.669C524.046 508.679 523.906 514.719 521.836 519.829L520.806 520.229L520.886 518.829C523.296 512.539 521.886 505.469 518.156 499.999L517.796 498.559Z"   fill="#5246B6" >
</path>
<path d="M397.266 518.309C400.706 516.739 404.546 516.969 408.236 516.989C430.566 517.169 452.906 516.739 475.226 517.269C477.776 516.879 479.566 519.389 478.526 521.709C477.746 520.339 477.156 518.179 475.176 518.339C452.536 518.319 429.886 518.499 407.236 518.139C404.056 517.989 400.906 518.449 397.806 519.129L397.266 518.309Z"   fill="#FEA729" >
</path>
<path d="M248.526 520.159L249.976 520.089C254.216 522.739 257.196 526.999 260.946 530.289C264.716 534.469 269.486 537.769 272.686 542.439L271.176 542.269C263.636 534.889 256.166 527.439 248.526 520.159Z"   fill="#5447B5" >
</path>
<path d="M386.266 621.789L387.076 620.899C387.926 627.709 386.706 634.709 384.306 641.089C382.846 643.809 381.676 647.129 378.706 648.559L379.126 647.039C384.926 639.989 385.706 630.529 386.266 621.789Z"   fill="#5447B5" >
</path>
<path d="M385.506 533.129C385.856 531.259 386.366 528.759 388.616 528.439C385.696 534.199 386.366 540.829 386.206 547.079C386.406 571.979 386.796 596.889 386.266 621.789C383.716 618.729 385.326 614.639 385.186 611.069C385.386 590.359 385.006 569.649 385.356 548.929C385.426 543.659 384.806 538.369 385.506 533.129Z"   fill="#FCA42D" >
</path>
<path d="M368.346 532.539C368.726 534.319 369.196 536.099 369.246 537.949C369.336 561.909 368.986 585.889 369.586 609.849C369.016 618.469 370.376 628.119 364.536 635.359L364.076 634.099C369.546 624.309 367.916 612.719 368.256 601.969C367.816 578.829 367.666 555.679 368.346 532.539Z"   fill="#FBA52D" >
</path>
<path d="M489.996 533.059C495.836 535.269 502.416 535.259 508.316 533.239C508.126 551.469 508.406 569.709 507.776 587.939C507.466 595.329 508.476 603.119 505.336 610.069C501.136 619.879 492.516 626.609 485.406 634.209C478.946 640.799 472.576 647.469 466.256 654.179C466.726 659.139 468.196 664.349 466.636 669.339C463.366 678.779 453.016 685.189 443.106 683.879C432.936 681.819 424.716 671.479 426.436 660.959C427.096 654.499 431.366 648.699 437.296 646.089C441.156 643.789 445.686 643.839 450.016 643.419C451.236 643.399 451.816 642.149 452.566 641.399C458.326 634.469 464.806 628.169 470.926 621.569C476.576 615.569 483.106 610.149 487.046 602.779C488.706 599.819 489.186 596.379 489.216 593.05C489.316 581.659 488.996 570.269 489.706 558.899C490.296 550.3 489.596 541.659 489.996 533.059Z"   fill="#508EB9" >
</path>
<path d="M268.896 568.479L270.186 568.939C274.396 575.039 273.026 582.619 273.286 589.559C273.266 590.249 273.236 591.629 273.226 592.319C271.266 589.669 272.466 586.109 272.226 583.069C272.706 577.939 270.686 573.149 268.896 568.479Z"   fill="#5043B7" >
</path>
<path d="M273.286 589.559C275.176 595.189 273.986 601.209 274.336 607.029C273.716 617.019 275.806 626.919 275.226 636.909C274.946 637.089 274.396 637.459 274.116 637.649C273.026 622.559 273.136 607.429 273.226 592.319C273.236 591.629 273.266 590.249 273.286 589.559Z"   fill="#FDA22F" >
</path>
<path d="M331.316 645.729C339.706 645.469 348.676 646.329 356.216 641.899L357.516 642.439C351.246 647.329 342.766 647.099 335.226 647.069C325.746 646.829 316.256 647.399 306.796 646.869C306.826 646.489 306.886 645.729 306.916 645.349C315.006 646.479 323.186 645.659 331.316 645.729Z"   fill="#FA9F31" >
</path>
<path d="M264.696 647.279C265.406 651.199 263.636 655.039 264.186 658.969C264.546 662.299 265.166 665.659 266.536 668.749C267.906 671.839 270.746 673.839 272.966 676.279C273.656 676.909 273.946 677.699 273.836 678.669C263.626 672.519 259.236 657.929 264.696 647.279Z"   fill="#F89B31" >
</path>
<path d="M14.2962 660.139C17.8461 662.549 18.5961 667.099 20.7661 670.559C21.6162 672.839 24.0662 675.169 22.8562 677.729C19.5961 672.089 16.6362 666.229 14.2962 660.139Z"   fill="#5A3F99" >
</path>
<path d="M306.866 668.699C305.576 666.379 307.586 663.099 310.166 663.059C320.846 662.799 331.536 663.029 342.226 662.849C344.116 662.769 345.926 663.389 347.726 663.889C334.996 664.069 322.246 664.369 309.526 664.239C308.056 665.299 307.636 667.159 306.866 668.699Z"   fill="#FCA22B" >
</path>
<path d="M24.1061 679.179C25.5962 679.059 27.0362 680.989 25.6262 682.099C24.4161 681.389 23.9062 680.419 24.1061 679.179Z"   fill="#4F3191" >
</path>
<path d="M697.886 742.689C701.316 740.869 704.406 737.869 708.526 737.869C698.766 744.499 688.266 750.139 677.266 754.399C676.876 754.229 676.086 753.909 675.686 753.739C683.116 750.119 690.806 747.009 697.886 742.689Z"   fill="#5E439B" >
</path>
<path d="M86.3561 742.609C88.6162 741.439 90.6861 743.639 92.6962 744.429C100.326 748.859 108.636 751.839 116.576 755.609L115.376 756.479C105.326 752.729 95.5161 748.199 86.3561 742.609Z"   fill="#5F449B" >
</path>
<path d="M118.426 757.449C119.826 757.129 121.306 756.929 122.696 757.489C132.316 760.409 142.116 762.929 152.106 764.209C151.996 764.579 151.776 765.329 151.676 765.699C140.376 763.969 129.116 761.509 118.426 757.449Z"   fill="#553997" >
</path>
<path d="M655.386 759.979C657.536 759.539 659.916 758.339 661.976 759.749C653.566 762.599 644.806 764.219 636.106 765.819C635.846 765.389 635.316 764.539 635.056 764.109C641.966 763.499 648.716 761.829 655.386 759.979Z"   fill="#5D429B" >
</path>
<path d="M152.356 765.819C155.196 764.559 159.006 763.919 161.656 765.889C160.436 766.139 159.196 766.349 157.966 766.529C156.086 766.329 154.216 766.019 152.356 765.819Z"   fill="#5D449B" >
</path>
</svg>
