<svg xmlns="http://www.w3.org/2000/svg" xmlns:xlink="http://www.w3.org/1999/xlink" width="256" height="256" viewBox="0 0 256 256" fill="none">
<path    stroke="rgba(24, 160, 88, 1)" stroke-width="16"    d="M21 95L62 106L21 179L62 179">
</path>
<path   fill="rgba(24, 160, 88, 1)"  d="M53.5994 21.4998L53.5311 21.7075Q53.4697 21.894 53.3993 22.0773Q53.3288 22.2606 53.2495 22.4403Q53.1701 22.6199 53.0821 22.7955Q52.994 22.971 52.8974 23.142Q52.8008 23.313 52.6959 23.479Q52.5911 23.6451 52.4782 23.8058Q52.3653 23.9665 52.2447 24.1215Q52.1241 24.2765 51.996 24.4253Q51.8679 24.5742 51.7327 24.7166Q51.5974 24.859 51.4554 24.9946Q51.3133 25.1302 51.1648 25.2587Q51.0162 25.3871 50.8615 25.5082Q50.7069 25.6292 50.5465 25.7425Q50.386 25.8558 50.2203 25.961Q50.0545 26.0663 49.8837 26.1633Q49.713 26.2603 49.5377 26.3489Q49.3623 26.4374 49.1829 26.5172Q49.0035 26.597 48.8203 26.6679Q48.6372 26.7388 48.4508 26.8007Q48.2644 26.8625 48.0752 26.9151Q47.886 26.9678 47.6944 27.011Q47.5029 27.0543 47.3094 27.0881Q47.1159 27.1219 46.9211 27.1462Q46.7262 27.1705 46.5303 27.1852Q46.3345 27.1999 46.1382 27.205Q45.9419 27.2101 45.7455 27.2055Q45.5492 27.2009 45.3533 27.1867Q45.1574 27.1725 44.9625 27.1487Q44.7676 27.1249 44.574 27.0916Q44.3805 27.0583 44.1888 27.0155Q43.9971 26.9727 43.8078 26.9206Q43.6184 26.8684 43.4319 26.8071Q43.2453 26.7457 43.062 26.6752Q42.8787 26.6048 42.6991 26.5254Q42.5194 26.4461 42.3439 26.358Q42.1684 26.2699 41.9974 26.1733Q41.8264 26.0768 41.6603 25.9719Q41.4942 25.8671 41.3335 25.7542Q41.1728 25.6413 41.0179 25.5207Q40.8629 25.4 40.714 25.2719Q40.5651 25.1439 40.4227 25.0086Q40.2803 24.8734 40.1447 24.7313Q40.0091 24.5893 39.8807 24.4407Q39.7522 24.2922 39.6312 24.1375Q39.5102 23.9828 39.3969 23.8224Q39.2836 23.662 39.1783 23.4962Q39.073 23.3304 38.976 23.1597Q38.879 22.9889 38.7905 22.8136Q38.702 22.6383 38.6221 22.4589Q38.5423 22.2794 38.4714 22.0963Q38.4005 21.9131 38.3387 21.7267Q38.2768 21.5403 38.2242 21.3511Q38.1716 21.1619 38.1283 20.9704Q38.085 20.7788 38.0512 20.5854Q38.0174 20.3919 37.9931 20.197Q37.9688 20.0021 37.9541 19.8063Q37.9394 19.6105 37.9344 19.4141Q37.9293 19.2178 37.9339 19.0215Q37.9384 18.8251 37.9526 18.6293Q37.9668 18.4334 37.9906 18.2384Q38.0144 18.0435 38.0477 17.85Q38.0811 17.6564 38.1239 17.4648Q38.1666 17.2731 38.2188 17.0837Q38.2709 16.8944 38.3323 16.7078L38.4006 16.5002Q38.462 16.3136 38.5324 16.1303Q38.6029 15.947 38.6822 15.7674Q38.7616 15.5877 38.8496 15.4122Q38.9377 15.2367 39.0343 15.0657Q39.1309 14.8947 39.2357 14.7286Q39.3406 14.5626 39.4535 14.4018Q39.5664 14.2411 39.687 14.0862Q39.8076 13.9312 39.9357 13.7823Q40.0638 13.6334 40.199 13.491Q40.3343 13.3486 40.4763 13.213Q40.6184 13.0774 40.7669 12.949Q40.9155 12.8205 41.0701 12.6995Q41.2248 12.5785 41.3852 12.4652Q41.5456 12.3519 41.7114 12.2466Q41.8772 12.1413 42.048 12.0443Q42.2187 11.9473 42.394 11.8588Q42.5693 11.7703 42.7488 11.6904Q42.9282 11.6106 43.1114 11.5397Q43.2945 11.4688 43.4809 11.407Q43.6673 11.3451 43.8565 11.2925Q44.0457 11.2399 44.2373 11.1966Q44.4288 11.1533 44.6223 11.1195Q44.8157 11.0857 45.0106 11.0614Q45.2055 11.0371 45.4013 11.0224Q45.5972 11.0077 45.7935 11.0027Q45.9898 10.9976 46.1862 11.0022Q46.3825 11.0067 46.5784 11.0209Q46.7743 11.0351 46.9692 11.0589Q47.1641 11.0827 47.3577 11.116Q47.5512 11.1494 47.7429 11.1922Q47.9346 11.2349 48.1239 11.2871Q48.3132 11.3392 48.4998 11.4006Q48.6864 11.462 48.8697 11.5324Q49.053 11.6029 49.2326 11.6822Q49.4123 11.7616 49.5878 11.8496Q49.7633 11.9377 49.9343 12.0343Q50.1053 12.1309 50.2714 12.2357Q50.4374 12.3406 50.5982 12.4535Q50.7589 12.5664 50.9138 12.687Q51.0688 12.8076 51.2177 12.9357Q51.3665 13.0638 51.509 13.199Q51.6514 13.3343 51.787 13.4763Q51.9226 13.6184 52.051 13.7669Q52.1795 13.9155 52.3005 14.0701Q52.4215 14.2248 52.5348 14.3852Q52.6481 14.5457 52.7534 14.7114Q52.8587 14.8772 52.9557 15.048Q53.0527 15.2187 53.1412 15.394Q53.2297 15.5693 53.3096 15.7488Q53.3894 15.9282 53.4603 16.1114Q53.5312 16.2945 53.593 16.4809Q53.6549 16.6673 53.7075 16.8565Q53.7601 17.0457 53.8034 17.2373Q53.8466 17.4288 53.8805 17.6223Q53.9143 17.8158 53.9386 18.0106Q53.9629 18.2055 53.9776 18.4013Q53.9923 18.5972 53.9973 18.7935Q54.0024 18.9898 53.9978 19.1862Q53.9933 19.3825 53.9791 19.5784Q53.9649 19.7743 53.9411 19.9692Q53.9173 20.1641 53.884 20.3577Q53.8506 20.5512 53.8078 20.7429Q53.7651 20.9346 53.7129 21.1239Q53.6608 21.3132 53.5994 21.4998ZM45.3344 46.6255L45.1978 47.0408Q45.1364 47.2273 45.066 47.4107Q44.9955 47.594 44.9162 47.7736Q44.8368 47.9533 44.7487 48.1288Q44.6606 48.3043 44.5641 48.4753Q44.4675 48.6463 44.3626 48.8124Q44.2578 48.9784 44.1449 49.1391Q44.032 49.2998 43.9114 49.4548Q43.7907 49.6098 43.6627 49.7587Q43.5346 49.9075 43.3993 50.0499Q43.2641 50.1923 43.122 50.3279Q42.98 50.4635 42.8314 50.592Q42.6829 50.7205 42.5282 50.8415Q42.3735 50.9625 42.2131 51.0758Q42.0527 51.1891 41.8869 51.2944Q41.7211 51.3996 41.5504 51.4967Q41.3796 51.5937 41.2043 51.6822Q41.029 51.7707 40.8496 51.8505Q40.6701 51.9303 40.487 52.0013Q40.3039 52.0722 40.1175 52.134Q39.9311 52.1958 39.7419 52.2485Q39.5526 52.3011 39.3611 52.3444Q39.1695 52.3876 38.9761 52.4215Q38.7826 52.4553 38.5877 52.4796Q38.3928 52.5039 38.197 52.5185Q38.0012 52.5332 37.8048 52.5383Q37.6085 52.5434 37.4122 52.5388Q37.2159 52.5342 37.02 52.52Q36.8241 52.5058 36.6292 52.4821Q36.4342 52.4583 36.2407 52.4249Q36.0471 52.3916 35.8555 52.3488Q35.6638 52.306 35.4745 52.2539Q35.2851 52.2018 35.0986 52.1404Q34.912 52.079 34.7287 52.0086Q34.5454 51.9381 34.3657 51.8588Q34.1861 51.7794 34.0106 51.6913Q33.835 51.6033 33.664 51.5067Q33.493 51.4101 33.327 51.3052Q33.1609 51.2004 33.0002 51.0875Q32.8395 50.9746 32.6845 50.854Q32.5295 50.7334 32.3807 50.6053Q32.2318 50.4772 32.0894 50.342Q31.947 50.2067 31.8114 50.0647Q31.6758 49.9226 31.5473 49.7741Q31.4189 49.6255 31.2978 49.4708Q31.1768 49.3162 31.0635 49.1558Q30.9502 48.9953 30.845 48.8296Q30.7397 48.6638 30.6427 48.493Q30.5457 48.3223 30.4571 48.1469Q30.3686 47.9716 30.2888 47.7922Q30.209 47.6128 30.1381 47.4296Q30.0672 47.2465 30.0053 47.0601Q29.9435 46.8737 29.8909 46.6845Q29.8382 46.4953 29.795 46.3037Q29.7517 46.1121 29.7179 45.9187Q29.6841 45.7252 29.6598 45.5304Q29.6355 45.3355 29.6208 45.1396Q29.6061 44.9438 29.601 44.7475Q29.596 44.5511 29.6005 44.3548Q29.6051 44.1585 29.6193 43.9626Q29.6335 43.7667 29.6573 43.5718Q29.6811 43.3768 29.7144 43.1833Q29.7477 42.9898 29.7905 42.7981Q29.8333 42.6064 29.8854 42.4171Q29.9376 42.2277 29.999 42.0412L30.1356 41.6259Q30.1969 41.4393 30.2674 41.256Q30.3378 41.0727 30.4172 40.893Q30.4965 40.7134 30.5846 40.5379Q30.6727 40.3623 30.7693 40.1913Q30.8659 40.0203 30.9707 39.8543Q31.0756 39.6882 31.1884 39.5275Q31.3013 39.3668 31.422 39.2118Q31.5426 39.0569 31.6707 38.908Q31.7988 38.7591 31.934 38.6167Q32.0692 38.4743 32.2113 38.3387Q32.3533 38.2031 32.5019 38.0746Q32.6504 37.9462 32.8051 37.8252Q32.9598 37.7041 33.1202 37.5909Q33.2806 37.4776 33.4464 37.3723Q33.6122 37.267 33.783 37.17Q33.9537 37.073 34.129 36.9845Q34.3043 36.8959 34.4838 36.8161Q34.6632 36.7363 34.8463 36.6654Q35.0295 36.5945 35.2159 36.5326Q35.4023 36.4708 35.5915 36.4182Q35.7807 36.3656 35.9722 36.3223Q36.1638 36.279 36.3573 36.2452Q36.5507 36.2114 36.7456 36.1871Q36.9405 36.1628 37.1363 36.1481Q37.3322 36.1334 37.5285 36.1283Q37.7248 36.1233 37.9211 36.1278Q38.1175 36.1324 38.3134 36.1466Q38.5092 36.1608 38.7042 36.1846Q38.8991 36.2084 39.0927 36.2417Q39.2862 36.2751 39.4779 36.3178Q39.6695 36.3606 39.8589 36.4128Q40.0482 36.4649 40.2348 36.5263Q40.4213 36.5876 40.6047 36.6581Q40.788 36.7285 40.9676 36.8079Q41.1473 36.8873 41.3228 36.9753Q41.4983 37.0634 41.6693 37.16Q41.8403 37.2566 42.0064 37.3614Q42.1724 37.4663 42.3331 37.5792Q42.4938 37.692 42.6488 37.8127Q42.8038 37.9333 42.9527 38.0614Q43.1015 38.1895 43.2439 38.3247Q43.3863 38.4599 43.5219 38.602Q43.6575 38.7441 43.786 38.8926Q43.9145 39.0411 44.0355 39.1958Q44.1565 39.3505 44.2698 39.5109Q44.3831 39.6713 44.4884 39.8371Q44.5936 40.0029 44.6907 40.1737Q44.7877 40.3444 44.8762 40.5197Q44.9647 40.695 45.0445 40.8745Q45.1243 41.0539 45.1953 41.237Q45.2662 41.4202 45.328 41.6066Q45.3898 41.793 45.4425 41.9822Q45.4951 42.1714 45.5384 42.363Q45.5816 42.5545 45.6155 42.748Q45.6493 42.9414 45.6736 43.1363Q45.6978 43.3312 45.7125 43.527Q45.7272 43.7229 45.7323 43.9192Q45.7374 44.1155 45.7328 44.3119Q45.7282 44.5082 45.714 44.7041Q45.6998 44.8999 45.676 45.0949Q45.6522 45.2898 45.6189 45.4834Q45.5856 45.6769 45.5428 45.8686Q45.5 46.0602 45.4479 46.2496Q45.3957 46.4389 45.3344 46.6255ZM37.0011 71.9588L36.8644 72.3741Q36.8031 72.5607 36.7326 72.744Q36.6622 72.9273 36.5828 73.1069Q36.5035 73.2866 36.4154 73.4621Q36.3273 73.6377 36.2307 73.8087Q36.1341 73.9797 36.0293 74.1457Q35.9244 74.3118 35.8116 74.4725Q35.6987 74.6332 35.5781 74.7881Q35.4574 74.9431 35.3293 75.092Q35.2013 75.2409 35.066 75.3833Q34.9308 75.5257 34.7887 75.6613Q34.6467 75.7969 34.4981 75.9253Q34.3496 76.0538 34.1949 76.1748Q34.0402 76.2958 33.8798 76.4091Q33.7194 76.5224 33.5536 76.6277Q33.3878 76.733 33.2171 76.83Q33.0463 76.927 32.871 77.0155Q32.6957 77.104 32.5163 77.1839Q32.3368 77.2637 32.1537 77.3346Q31.9705 77.4055 31.7841 77.4673Q31.5977 77.5292 31.4085 77.5818Q31.2193 77.6344 31.0278 77.6777Q30.8362 77.721 30.6427 77.7548Q30.4493 77.7886 30.2544 77.8129Q30.0595 77.8372 29.8637 77.8519Q29.6679 77.8666 29.4715 77.8717Q29.2752 77.8767 29.0789 77.8721Q28.8825 77.8676 28.6867 77.8534Q28.4908 77.8392 28.2958 77.8154Q28.1009 77.7916 27.9074 77.7583Q27.7138 77.7249 27.5221 77.6822Q27.3305 77.6394 27.1411 77.5872Q26.9518 77.5351 26.7652 77.4737Q26.5787 77.4124 26.3954 77.3419Q26.212 77.2715 26.0324 77.1921Q25.8528 77.1127 25.6772 77.0247Q25.5017 76.9366 25.3307 76.84Q25.1597 76.7434 24.9936 76.6386Q24.8276 76.5337 24.6669 76.4208Q24.5062 76.308 24.3512 76.1873Q24.1962 76.0667 24.0473 75.9386Q23.8985 75.8105 23.7561 75.6753Q23.6137 75.5401 23.4781 75.398Q23.3425 75.2559 23.214 75.1074Q23.0855 74.9588 22.9645 74.8042Q22.8435 74.6495 22.7302 74.4891Q22.6169 74.3287 22.5116 74.1629Q22.4064 73.9971 22.3094 73.8263Q22.2123 73.6556 22.1238 73.4803Q22.0353 73.305 21.9555 73.1255Q21.8757 72.9461 21.8048 72.763Q21.7338 72.5798 21.672 72.3934Q21.6102 72.207 21.5575 72.0178Q21.5049 71.8286 21.4616 71.637Q21.4184 71.4455 21.3846 71.252Q21.3507 71.0586 21.3264 70.8637Q21.3022 70.6688 21.2875 70.473Q21.2728 70.2771 21.2677 70.0808Q21.2626 69.8845 21.2672 69.6882Q21.2718 69.4918 21.286 69.296Q21.3002 69.1001 21.324 68.9051Q21.3477 68.7102 21.3811 68.5166Q21.4144 68.3231 21.4572 68.1314Q21.5 67.9398 21.5521 67.7504Q21.6043 67.5611 21.6656 67.3745L21.8022 66.9592Q21.8636 66.7727 21.934 66.5893Q22.0045 66.406 22.0838 66.2264Q22.1632 66.0467 22.2513 65.8712Q22.3394 65.6957 22.4359 65.5247Q22.5325 65.3537 22.6374 65.1876Q22.7422 65.0216 22.8551 64.8609Q22.968 64.7002 23.0886 64.5452Q23.2092 64.3902 23.3373 64.2413Q23.4654 64.0925 23.6007 63.9501Q23.7359 63.8077 23.878 63.6721Q24.02 63.5365 24.1686 63.408Q24.3171 63.2795 24.4718 63.1585Q24.6264 63.0375 24.7869 62.9242Q24.9473 62.8109 25.1131 62.7056Q25.2789 62.6004 25.4496 62.5033Q25.6204 62.4063 25.7957 62.3178Q25.971 62.2293 26.1504 62.1495Q26.3299 62.0696 26.513 61.9987Q26.6961 61.9278 26.8825 61.866Q27.0689 61.8041 27.2581 61.7515Q27.4473 61.6989 27.6389 61.6556Q27.8305 61.6124 28.0239 61.5785Q28.2174 61.5447 28.4123 61.5204Q28.6071 61.4961 28.803 61.4814Q28.9988 61.4667 29.1951 61.4617Q29.3915 61.4566 29.5878 61.4612Q29.7841 61.4657 29.98 61.4799Q30.1759 61.4941 30.3708 61.5179Q30.5658 61.5417 30.7593 61.5751Q30.9529 61.6084 31.1445 61.6512Q31.3362 61.694 31.5255 61.7461Q31.7149 61.7982 31.9014 61.8596Q32.088 61.921 32.2713 61.9914Q32.4546 62.0619 32.6343 62.1412Q32.8139 62.2206 32.9894 62.3087Q33.165 62.3967 33.336 62.4933Q33.507 62.5899 33.673 62.6947Q33.8391 62.7996 33.9998 62.9125Q34.1605 63.0254 34.3155 63.146Q34.4704 63.2666 34.6193 63.3947Q34.7682 63.5228 34.9106 63.658Q35.053 63.7933 35.1886 63.9353Q35.3242 64.0774 35.4527 64.2259Q35.5811 64.3745 35.7021 64.5291Q35.8232 64.6838 35.9365 64.8442Q36.0497 65.0047 36.155 65.1704Q36.2603 65.3362 36.3573 65.507Q36.4543 65.6777 36.5429 65.853Q36.6314 66.0283 36.7112 66.2078Q36.791 66.3872 36.8619 66.5704Q36.9328 66.7535 36.9947 66.9399Q37.0565 67.1263 37.1091 67.3155Q37.1617 67.5047 37.205 67.6963Q37.2483 67.8878 37.2821 68.0813Q37.3159 68.2747 37.3402 68.4696Q37.3645 68.6645 37.3792 68.8604Q37.3939 69.0562 37.399 69.2525Q37.404 69.4488 37.3995 69.6452Q37.3949 69.8415 37.3807 70.0374Q37.3665 70.2333 37.3427 70.4282Q37.3189 70.6232 37.2856 70.8167Q37.2523 71.0102 37.2095 71.2019Q37.1667 71.3936 37.1146 71.5829Q37.0624 71.7723 37.0011 71.9588ZM28.6677 97.2922L28.5994 97.4998Q28.538 97.6864 28.4676 97.8697Q28.3971 98.053 28.3178 98.2327Q28.2384 98.4123 28.1504 98.5878Q28.0623 98.7634 27.9657 98.9343Q27.8691 99.1053 27.7643 99.2714Q27.6594 99.4375 27.5465 99.5982Q27.4336 99.7589 27.313 99.9138Q27.1924 100.069 27.0643 100.218Q26.9362 100.367 26.801 100.509Q26.6657 100.651 26.5237 100.787Q26.3816 100.923 26.2331 101.051Q26.0845 101.179 25.9298 101.301Q25.7752 101.422 25.6148 101.535Q25.4543 101.648 25.2886 101.753Q25.1228 101.859 24.952 101.956Q24.7813 102.053 24.606 102.141Q24.4306 102.23 24.2512 102.31Q24.0718 102.389 23.8886 102.46Q23.7055 102.531 23.5191 102.593Q23.3327 102.655 23.1435 102.707Q22.9543 102.76 22.7627 102.803Q22.5711 102.847 22.3777 102.88Q22.1842 102.914 21.9894 102.939Q21.7945 102.963 21.5986 102.978Q21.4028 102.992 21.2065 102.997Q21.0102 103.002 20.8138 102.998Q20.6175 102.993 20.4216 102.979Q20.2257 102.965 20.0308 102.941Q19.8358 102.917 19.6423 102.884Q19.4488 102.851 19.2571 102.808Q19.0654 102.765 18.8761 102.713Q18.6867 102.661 18.5002 102.599Q18.3136 102.538 18.1303 102.468Q17.947 102.397 17.7674 102.318Q17.5877 102.238 17.4122 102.15Q17.2366 102.062 17.0656 101.966Q16.8946 101.869 16.7286 101.764Q16.5625 101.659 16.4018 101.547Q16.2411 101.434 16.0862 101.313Q15.9312 101.192 15.7823 101.064Q15.6334 100.936 15.491 100.801Q15.3486 100.666 15.213 100.524Q15.0774 100.382 14.949 100.233Q14.8205 100.085 14.6995 99.9298Q14.5785 99.7752 14.4652 99.6147Q14.3519 99.4543 14.2466 99.2886Q14.1413 99.1228 14.0443 98.952Q13.9473 98.7812 13.8588 98.6059Q13.7703 98.4306 13.6904 98.2512Q13.6106 98.0718 13.5397 97.8886Q13.4688 97.7055 13.407 97.5191Q13.3451 97.3327 13.2925 97.1435Q13.2399 96.9543 13.1966 96.7627Q13.1533 96.5711 13.1195 96.3777Q13.0857 96.1842 13.0614 95.9893Q13.0371 95.7945 13.0224 95.5986Q13.0077 95.4028 13.0027 95.2065Q12.9976 95.0101 13.0022 94.8138Q13.0067 94.6175 13.0209 94.4216Q13.0351 94.2257 13.0589 94.0308Q13.0827 93.8358 13.1161 93.6423Q13.1494 93.4488 13.1922 93.2571Q13.235 93.0654 13.2871 92.8761Q13.3392 92.6867 13.4006 92.5002L13.4689 92.2925Q13.5303 92.106 13.6007 91.9227Q13.6712 91.7393 13.7505 91.5597Q13.8299 91.3801 13.918 91.2045Q14.006 91.029 14.1026 90.858Q14.1992 90.687 14.3041 90.5209Q14.4089 90.3549 14.5218 90.1942Q14.6347 90.0335 14.7553 89.8785Q14.8759 89.7235 15.004 89.5746Q15.1321 89.4258 15.2673 89.2834Q15.4026 89.141 15.5446 89.0054Q15.6867 88.8698 15.8352 88.7413Q15.9838 88.6128 16.1385 88.4918Q16.2931 88.3708 16.4535 88.2575Q16.614 88.1442 16.7798 88.039Q16.9455 87.9337 17.1163 87.8367Q17.287 87.7396 17.4624 87.6511Q17.6377 87.5626 17.8171 87.4828Q17.9965 87.403 18.1797 87.3321Q18.3628 87.2612 18.5492 87.1993Q18.7356 87.1375 18.9248 87.0848Q19.114 87.0322 19.3056 86.989Q19.4972 86.9457 19.6906 86.9119Q19.8841 86.878 20.079 86.8538Q20.2738 86.8295 20.4697 86.8148Q20.6655 86.8001 20.8618 86.795Q21.0582 86.7899 21.2545 86.7945Q21.4508 86.7991 21.6467 86.8133Q21.8426 86.8275 22.0375 86.8513Q22.2325 86.8751 22.426 86.9084Q22.6195 86.9417 22.8112 86.9845Q23.0029 87.0273 23.1922 87.0794Q23.3816 87.1316 23.5681 87.1929Q23.7547 87.2543 23.938 87.3248Q24.1213 87.3952 24.301 87.4746Q24.4806 87.5539 24.6561 87.642Q24.8317 87.7301 25.0027 87.8267Q25.1737 87.9232 25.3397 88.0281Q25.5058 88.1329 25.6665 88.2458Q25.8272 88.3587 25.9822 88.4793Q26.1371 88.6 26.286 88.7281Q26.4349 88.8561 26.5773 88.9914Q26.7197 89.1266 26.8553 89.2687Q26.9909 89.4107 27.1193 89.5593Q27.2478 89.7078 27.3688 89.8625Q27.4898 90.0172 27.6031 90.1776Q27.7164 90.338 27.8217 90.5038Q27.927 90.6696 28.024 90.8403Q28.121 91.0111 28.2095 91.1864Q28.298 91.3617 28.3779 91.5411Q28.4577 91.7206 28.5286 91.9037Q28.5995 92.0869 28.6613 92.2733Q28.7232 92.4597 28.7758 92.6489Q28.8284 92.8381 28.8717 93.0296Q28.915 93.2212 28.9488 93.4147Q28.9826 93.6081 29.0069 93.803Q29.0312 93.9979 29.0459 94.1937Q29.0606 94.3895 29.0656 94.5859Q29.0707 94.7822 29.0661 94.9785Q29.0616 95.1749 29.0474 95.3707Q29.0332 95.5666 29.0094 95.7616Q28.9856 95.9565 28.9523 96.15Q28.9189 96.3436 28.8761 96.5353Q28.8334 96.7269 28.7812 96.9163Q28.7291 97.1056 28.6677 97.2922Z">
</path>
<path   fill="rgba(255, 195, 0, 1)"  d="M16 232L106.828 232L106.828 240L106.828 232C101.791 232 98.9962 237.831 102.15 241.758L102.15 241.758L92.513 229.76L98.75 224.75L92.513 229.76L86.388 222.135L98.862 212.115L104.987 219.74L104.987 219.74L114.624 231.737L108.387 236.747L114.624 231.737C119.881 238.282 115.222 248 106.828 248L106.828 248L16 248L16 232ZM16 248C11.5817 248 8 244.418 8 240C8 235.582 11.5817 232 16 232C20.4183 232 24 235.582 24 240C24 244.418 20.4183 248 16 248ZM92.625 225.125C88.2067 225.125 84.625 221.543 84.625 217.125C84.625 212.707 88.2067 209.125 92.625 209.125C97.0433 209.125 100.625 212.707 100.625 217.125C100.625 221.543 97.0433 225.125 92.625 225.125Z">
</path>
<path    stroke="rgba(165, 214, 63, 1)" stroke-width="16"  stroke-linecap="round"  d="M106 101.556L244 101.556">
</path>
<path d="M98 39.5C98 43.9183 101.582 47.5 106 47.5L153 47.5L153 31.5L106 31.5C101.582 31.5 98 35.0817 98 39.5ZM176 31.5L176 47.5L239 47.5L239 31.5L176 31.5Z" fill-rule="evenodd"  fill="#FF5733" >
</path>
<path   fill="rgba(255, 87, 51, 1)"  d="M231 39.5L231 23L239 23L239 39.5L231 39.5ZM235 43.5C232.791 43.5 231 41.7091 231 39.5C231 37.2909 232.791 35.5 235 35.5C237.209 35.5 239 37.2909 239 39.5C239 41.7091 237.209 43.5 235 43.5ZM239 19L239 23L231 23L231 19L239 19Z">
</path>
<path   fill="rgba(42, 130, 228, 1)"  d="M244 239L244 222.5L252 222.5L252 239L244 239ZM248 243C245.791 243 244 241.209 244 239C244 236.791 245.791 235 248 235C250.209 235 252 236.791 252 239C252 241.209 250.209 243 248 243ZM252 218.5L252 222.5L244 222.5L244 218.5L252 218.5Z">
</path>
<path   fill="rgba(42, 130, 228, 1)"  d="M172.5 13L172.5 208.373L172.5 208.373L172.5 208.373Q172.5 209.964 173.109 211.434Q173.718 212.904 174.843 214.029L174.843 214.029L189.471 228.657L183.814 234.314L189.471 228.657L183.814 234.314L189.471 228.657Q190.596 229.782 192.066 230.391Q193.536 231 195.127 231L195.127 239L195.127 231L244 231L244 247L195.127 247L195.127 247Q190.354 247 185.943 245.173Q181.533 243.346 178.157 239.971L178.157 239.971L178.157 239.971L163.529 225.343L169.186 219.686L163.529 225.343Q160.154 221.968 158.327 217.557Q156.5 213.146 156.5 208.373L164.5 208.373L156.5 208.373L164.5 208.373L156.5 208.373L156.5 13L172.5 13ZM164.5 21C160.082 21 156.5 17.4183 156.5 13C156.5 8.58172 160.082 5 164.5 5C168.918 5 172.5 8.58172 172.5 13C172.5 17.4183 168.918 21 164.5 21ZM252 247L244 247L244 231L252 231L252 247Z">
</path>
<path   fill="rgba(255, 141, 26, 1)"  d="M100.343 182.843L115.157 168.029L115.157 168.029L115.157 168.029Q118.533 164.654 122.943 162.827Q127.354 161 132.127 161L132.127 169L132.127 161L211.373 161L211.373 169L211.373 161L211.373 169L211.373 161Q212.964 161 214.434 160.391Q215.904 159.782 217.029 158.657L222.686 164.314L217.029 158.657L229.343 146.343L240.657 157.657L228.343 169.971L228.343 169.971Q224.967 173.346 220.557 175.173Q216.146 177 211.373 177L211.373 177L211.373 177L132.127 177L132.127 177Q130.536 177 129.066 177.609Q127.596 178.218 126.471 179.343L120.814 173.686L126.471 179.343L120.814 173.686L126.471 179.343L111.657 194.157L100.343 182.843ZM106 196.5C101.582 196.5 98 192.918 98 188.5C98 184.082 101.582 180.5 106 180.5C110.418 180.5 114 184.082 114 188.5C114 192.918 110.418 196.5 106 196.5ZM235 160C230.582 160 227 156.418 227 152C227 147.582 230.582 144 235 144C239.418 144 243 147.582 243 152C243 156.418 239.418 160 235 160Z">
</path>
<circle cx="46" cy="19" r="11" stroke="rgba(24, 160, 88, 1)" stroke-width="8"      fill="#FFFFFF" >
</circle>
<circle cx="175.5" cy="97" transform="rotate(45 164.5 86)" r="11" stroke="rgba(255, 255, 255, 1)" stroke-width="8"      fill="#FFFFFF" >
</circle>
<circle cx="173.38678536744214" cy="97.91522775025463" transform="rotate(45 164.528076171875 89.0565185546875)" r="8.858709195567135" stroke="rgba(42, 130, 228, 1)" stroke-width="8"      fill="#FFFFFF" >
</circle>
<path   fill="rgba(165, 214, 63, 1)"  d="M161.092 105.02C162.99 106.918 166.066 106.918 167.964 105.02L170.792 107.849L167.964 105.02C169.861 103.123 169.861 100.046 167.964 98.149L173.621 92.4921C178.642 97.5138 178.642 105.655 173.621 110.677L173.621 110.677C168.599 115.699 160.457 115.699 155.436 110.677L161.092 105.02ZM155.436 110.677C153.873 109.115 153.873 106.582 155.436 105.02C156.998 103.458 159.53 103.458 161.092 105.02C162.655 106.582 162.655 109.115 161.092 110.677C159.53 112.239 156.998 112.239 155.436 110.677Z">
</path>
<path   fill="rgba(42, 130, 228, 1)"  d="M155.436 92.4921C160.457 87.4705 168.599 87.4705 173.621 92.4921L167.964 98.149C166.066 96.2516 162.99 96.2516 161.092 98.149L155.436 92.4921ZM167.964 98.149C166.402 96.5869 166.402 94.0542 167.964 92.4921C169.526 90.93 172.058 90.93 173.621 92.4921C175.183 94.0542 175.183 96.5869 173.621 98.149C172.058 99.7111 169.526 99.7111 167.964 98.149Z">
</path>
<circle cx="175.496337890625" cy="164.5" transform="rotate(45 164.496337890625 153.5)" r="11" stroke="rgba(255, 255, 255, 1)" stroke-width="8"      fill="#FFFFFF" >
</circle>
<circle cx="173.38312325806714" cy="165.41522775025464" transform="rotate(45 164.5244140625 156.5565185546875)" r="8.858709195567135" stroke="rgba(42, 130, 228, 1)" stroke-width="8"      fill="#FFFFFF" >
</circle>
<path   fill="rgba(255, 141, 26, 1)"  d="M161.089 172.52C162.986 174.418 166.063 174.418 167.96 172.52L170.788 175.349L167.96 172.52C169.857 170.623 169.857 167.546 167.96 165.649L173.617 159.992C178.639 165.014 178.639 173.155 173.617 178.177L173.617 178.177C168.595 183.199 160.454 183.199 155.432 178.177L161.089 172.52ZM155.432 178.177C153.87 176.615 153.87 174.082 155.432 172.52C156.994 170.958 159.527 170.958 161.089 172.52C162.651 174.082 162.651 176.615 161.089 178.177C159.527 179.739 156.994 179.739 155.432 178.177Z">
</path>
<path   fill="rgba(42, 130, 228, 1)"  d="M155.432 159.992C160.454 154.971 168.595 154.971 173.617 159.992L167.96 165.649C166.063 163.752 162.986 163.752 161.089 165.649L155.432 159.992ZM167.96 165.649C166.398 164.087 166.398 161.554 167.96 159.992C169.522 158.43 172.055 158.43 173.617 159.992C175.179 161.554 175.179 164.087 173.617 165.649C172.055 167.211 169.522 167.211 167.96 165.649Z">
</path>
<circle cx="21" cy="95" r="11" stroke="rgba(24, 160, 88, 1)" stroke-width="8"      fill="#FFFFFF" >
</circle>
<circle cx="62" cy="106" r="11" stroke="rgba(24, 160, 88, 1)" stroke-width="8"      fill="#FFFFFF" >
</circle>
<circle cx="21" cy="179" r="11" stroke="rgba(24, 160, 88, 1)" stroke-width="8"      fill="#FFFFFF" >
</circle>
<circle cx="62" cy="179" r="11" stroke="rgba(24, 160, 88, 1)" stroke-width="8"      fill="#FFFFFF" >
</circle>
</svg>
