<?xml version="1.0" encoding="UTF-8" ?>
<!DOCTYPE svg PUBLIC "-//W3C//DTD SVG 1.1//EN" "http://www.w3.org/Graphics/SVG/1.1/DTD/svg11.dtd">
<svg width="1024pt" height="1024pt" viewBox="0 0 1024 1024" version="1.1" xmlns="http://www.w3.org/2000/svg">
<g id="#fdfaf5ff">
<path fill="#fdfaf5" opacity="1.00" d=" M 496.61 466.46 C 497.07 465.76 497.73 465.39 498.59 465.35 C 496.22 469.38 493.62 473.28 491.16 477.25 C 489.47 480.25 486.03 481.46 483.45 483.51 C 483.76 482.07 485.02 481.29 486.11 480.46 C 491.18 477.16 493.08 471.10 496.61 466.46 Z" />
</g>
<g id="#6a50a3ff">
<path fill="#6a50a3" opacity="1.00" d=" M 251.18 136.16 C 263.76 133.64 276.49 131.18 289.36 131.10 C 291.21 131.52 293.06 131.99 294.98 132.02 C 438.66 132.05 582.34 132.10 726.03 132.03 C 729.91 132.17 733.84 132.18 737.61 131.10 C 739.05 130.89 740.52 131.07 741.99 131.08 L 741.65 131.34 C 741.15 131.72 740.17 132.48 739.67 132.87 C 749.58 133.19 759.44 134.67 769.09 136.88 C 770.68 137.39 772.29 136.95 773.79 136.33 C 778.48 137.33 782.97 139.08 787.62 140.27 L 787.43 140.68 C 787.28 140.98 786.99 141.60 786.84 141.91 C 789.71 142.69 792.76 144.91 795.77 143.55 C 838.89 160.16 874.27 195.31 891.56 238.12 C 890.50 239.74 891.23 241.52 891.80 243.15 C 896.43 255.13 899.68 267.65 901.30 280.40 C 901.65 279.83 902.33 278.68 902.68 278.11 C 903.82 286.45 904.92 294.88 904.89 303.30 C 904.38 305.16 903.79 307.04 903.84 309.00 C 904.06 438.35 903.86 567.69 903.95 697.03 C 904.05 719.06 904.31 741.38 899.04 762.93 C 895.77 776.69 891.20 790.19 884.65 802.75 C 883.96 804.35 882.57 806.00 883.42 807.84 C 870.31 832.42 850.65 853.31 827.57 868.82 L 827.29 868.85 C 823.17 868.85 820.08 871.85 816.65 873.67 C 809.57 877.99 801.88 881.10 794.45 884.72 C 794.85 884.89 795.64 885.21 796.03 885.38 C 791.17 887.57 786.05 889.15 781.00 890.84 L 780.74 890.73 C 778.68 889.32 776.30 890.52 774.15 890.96 C 767.48 892.81 760.73 894.48 753.82 895.09 C 754.08 895.52 754.61 896.37 754.87 896.80 C 745.98 897.84 737.07 898.86 728.10 898.87 C 584.39 898.93 440.67 898.86 296.96 898.90 C 290.20 898.83 283.44 898.25 276.73 897.51 C 277.96 897.33 279.20 897.12 280.42 896.87 C 277.77 894.90 273.96 895.54 271.12 896.80 C 270.92 896.88 270.51 897.04 270.31 897.11 L 270.44 896.68 C 270.54 896.31 270.76 895.56 270.87 895.19 C 260.88 893.91 251.08 891.39 241.46 888.47 C 240.07 887.91 238.59 888.11 237.19 888.43 C 236.09 888.44 235.13 887.82 234.14 887.46 L 235.34 886.59 C 227.40 882.82 219.09 879.84 211.46 875.41 C 209.45 874.62 207.38 872.42 205.12 873.59 C 180.09 859.15 159.14 838.04 144.11 813.40 L 144.39 813.08 C 145.80 811.97 144.36 810.04 142.87 810.16 L 142.10 810.03 C 141.98 809.70 141.74 809.04 141.62 808.71 C 142.83 806.15 140.38 803.82 139.53 801.54 C 137.36 798.08 136.61 793.53 133.06 791.12 C 126.08 775.67 122.23 758.86 120.05 742.07 C 119.90 737.59 118.74 733.14 119.09 728.66 C 119.68 726.15 119.99 723.57 119.91 721.00 C 120.10 586.33 119.92 451.66 119.99 317.00 C 119.93 310.47 120.31 303.89 119.09 297.44 C 119.46 287.00 121.03 276.58 123.31 266.38 C 123.69 266.57 124.44 266.95 124.81 267.14 C 127.13 256.69 130.41 246.43 134.80 236.67 C 135.47 234.91 136.65 233.01 135.60 231.14 C 144.00 212.94 155.72 196.25 169.98 182.18 C 170.04 182.12 170.16 182.00 170.22 181.94 C 180.83 171.15 193.01 161.85 206.27 154.58 C 208.34 155.58 210.19 153.83 212.00 153.05 C 217.17 150.09 222.81 148.10 228.06 145.31 L 227.27 144.38 L 227.05 144.11 C 227.77 143.90 228.51 143.74 229.25 143.61 C 230.88 143.87 232.56 144.01 234.11 143.28 C 239.98 141.01 246.04 139.26 252.15 137.73 C 251.96 137.42 251.59 136.82 251.40 136.51 L 251.18 136.16 M 590.86 198.92 C 586.36 204.25 583.35 210.64 579.71 216.56 C 597.72 228.15 615.30 240.42 633.48 251.74 C 633.76 251.84 634.31 252.04 634.59 252.14 C 634.89 251.61 635.49 250.55 635.80 250.02 L 635.32 251.53 L 636.69 250.99 C 639.93 246.02 643.39 241.01 645.60 235.47 L 644.15 235.92 C 645.87 232.50 648.16 229.04 648.02 225.06 C 648.18 219.60 646.26 213.54 641.49 210.43 C 634.76 205.81 627.71 201.70 620.95 197.13 C 617.68 195.00 614.48 192.62 610.75 191.33 C 603.30 189.66 595.83 193.55 590.86 198.92 M 473.28 205.24 C 465.22 208.61 459.46 215.97 455.57 223.56 C 452.78 228.48 453.68 234.71 456.90 239.19 C 449.76 244.50 443.71 251.14 436.97 256.94 C 421.64 271.64 406.60 286.64 391.89 301.95 C 381.23 313.62 369.83 326.47 368.20 342.91 C 367.07 365.58 367.97 388.32 367.73 411.01 C 367.41 416.35 366.86 421.77 364.85 426.78 C 361.50 435.08 354.83 441.85 346.86 445.80 L 347.36 444.58 C 342.82 445.43 339.03 448.31 334.61 449.54 C 332.97 450.29 330.68 450.37 329.81 452.19 L 331.20 452.41 C 319.72 456.21 309.54 463.67 302.30 473.35 C 301.45 471.35 300.98 469.21 301.06 467.04 C 300.93 449.32 301.21 431.58 300.45 413.88 C 299.22 418.56 300.32 423.47 299.38 428.22 C 298.75 419.12 299.23 409.99 298.88 400.89 C 295.87 389.21 286.24 380.52 275.86 375.11 L 277.34 375.27 C 277.09 374.86 276.59 374.05 276.34 373.64 C 266.39 368.61 254.71 369.36 244.69 364.56 L 244.92 365.87 C 241.93 364.14 239.54 361.53 237.62 358.69 L 238.06 357.27 C 236.08 352.11 233.85 346.73 234.40 341.07 C 234.93 338.23 235.92 335.49 236.30 332.62 L 235.15 333.17 C 239.89 322.73 248.36 314.48 252.60 303.79 L 252.58 305.41 C 254.03 304.75 254.26 303.09 254.75 301.77 C 256.53 296.08 256.57 290.03 256.35 284.13 C 256.24 276.55 252.82 269.57 250.11 262.71 C 251.00 258.85 251.92 254.82 250.84 250.89 C 249.79 245.81 246.51 241.64 242.85 238.14 L 244.33 238.38 C 241.50 234.23 235.82 232.72 231.01 232.76 C 229.64 233.09 227.21 232.27 226.77 234.13 C 227.37 234.19 228.59 234.32 229.20 234.38 C 222.05 235.49 215.87 240.42 213.28 247.18 L 213.35 245.60 C 210.18 247.73 210.39 252.59 210.02 256.09 C 210.79 260.36 211.35 265.87 215.38 268.33 L 215.19 266.85 C 217.27 269.76 219.93 272.27 223.23 273.75 L 221.55 273.57 C 223.38 277.05 229.20 275.44 230.55 279.32 C 232.37 284.65 234.16 290.41 232.80 296.07 C 232.19 299.84 229.35 302.74 228.53 306.45 L 229.85 305.97 C 224.65 315.64 217.27 324.33 214.52 335.17 C 212.36 344.78 213.55 355.13 217.98 363.96 C 222.79 374.74 232.57 382.79 243.63 386.59 C 249.73 388.29 256.26 388.20 262.14 390.73 C 261.51 390.74 260.24 390.76 259.60 390.76 C 261.89 393.05 265.46 393.25 268.16 394.97 C 271.99 396.64 274.20 400.39 277.64 402.59 L 277.35 400.99 C 280.32 405.10 281.25 410.27 281.10 415.25 C 280.71 415.52 279.91 416.06 279.51 416.33 C 278.58 420.84 279.15 425.50 279.00 430.07 C 279.14 449.26 278.72 468.46 279.22 487.64 C 273.46 491.75 268.82 497.82 267.68 504.94 C 267.38 505.05 266.79 505.27 266.49 505.38 C 253.19 506.70 239.64 503.53 226.47 506.55 C 215.46 509.74 205.29 515.91 197.68 524.51 C 196.92 525.45 195.98 526.36 195.76 527.61 C 191.49 532.58 189.19 538.95 187.52 545.21 L 187.23 543.86 C 185.13 545.89 185.73 549.34 185.17 552.02 C 184.73 564.89 185.20 577.78 185.15 590.65 C 179.89 593.82 175.02 598.56 174.10 604.91 C 173.97 609.50 173.40 614.35 175.52 618.62 C 177.81 624.38 183.32 628.23 189.23 629.59 L 187.89 629.70 C 188.80 632.19 192.79 631.23 195.07 631.70 C 200.66 631.09 207.11 629.49 210.58 624.70 L 209.11 624.95 C 213.85 620.61 216.54 614.34 216.89 607.97 C 216.45 602.23 214.33 596.04 209.32 592.73 C 207.43 591.30 204.24 590.31 204.98 587.33 L 205.62 586.71 C 206.38 578.20 205.83 569.61 205.98 561.07 C 205.79 558.28 206.48 555.22 205.06 552.68 C 205.21 549.50 206.64 546.58 207.41 543.55 L 207.66 543.45 C 211.93 533.18 222.13 526.10 232.87 524.06 C 245.61 523.90 258.36 524.06 271.11 523.99 C 273.69 527.16 276.85 529.84 280.38 531.92 L 279.24 531.63 C 280.76 535.28 279.81 539.25 279.99 543.07 C 280.16 553.82 279.62 564.60 280.45 575.32 C 280.75 574.70 281.35 573.44 281.65 572.82 C 282.26 577.20 281.64 581.70 282.93 585.99 C 285.14 596.19 292.33 604.27 299.74 611.21 C 307.76 618.93 316.14 626.30 323.77 634.42 C 307.08 651.16 290.68 668.19 273.81 684.75 C 267.13 692.04 259.93 698.83 252.99 705.87 C 243.93 714.51 235.63 723.92 226.46 732.45 C 225.07 733.89 222.97 732.64 221.30 732.57 C 212.10 730.09 202.20 737.06 200.16 746.09 C 199.01 749.68 199.75 753.45 200.16 757.09 C 201.86 767.19 211.96 774.70 222.07 773.91 C 233.61 772.25 242.34 760.05 240.30 748.62 C 240.21 747.27 239.23 745.53 240.54 744.49 C 257.46 727.09 274.96 710.27 291.79 692.78 C 305.23 679.90 318.19 666.52 331.25 653.26 C 333.28 651.15 335.45 649.15 338.02 647.71 C 351.02 660.16 363.17 673.51 376.55 685.58 C 381.01 690.05 385.78 694.38 388.95 699.92 L 387.66 699.46 C 389.45 704.13 391.47 708.92 390.99 714.05 C 391.23 717.09 390.03 720.65 391.99 723.30 C 391.90 738.41 391.79 753.54 392.88 768.63 C 389.08 771.01 385.09 773.92 383.46 778.26 C 378.00 788.91 382.39 803.50 392.60 809.65 L 392.61 809.84 C 397.59 812.78 403.49 812.04 409.00 811.88 C 415.87 810.52 422.70 806.46 425.69 799.92 L 425.63 799.68 C 426.40 798.14 426.82 796.28 428.29 795.22 C 441.01 795.35 453.76 795.05 466.49 794.87 C 478.60 794.03 490.37 787.60 497.89 778.02 L 497.47 779.54 C 500.44 778.11 501.61 774.79 503.07 772.07 C 505.47 765.69 506.69 758.69 505.84 751.88 L 505.03 752.77 C 505.56 727.87 505.17 702.96 504.97 678.06 C 505.13 671.81 504.46 665.18 507.38 659.42 L 507.59 659.34 C 510.06 655.85 512.85 652.34 516.83 650.51 L 516.57 650.11 C 519.67 649.43 522.82 648.97 526.00 649.12 C 548.65 649.48 571.30 649.30 593.94 649.32 C 595.92 649.16 596.51 651.32 597.29 652.69 L 597.25 652.99 C 599.17 658.17 603.93 661.71 608.76 664.04 C 608.36 672.64 609.06 681.28 608.47 689.88 C 607.76 701.25 608.08 712.64 607.98 724.03 C 607.95 727.36 607.47 730.80 605.81 733.76 C 601.87 741.13 595.34 746.55 589.69 752.55 C 583.57 759.15 577.09 765.45 571.33 772.38 C 570.58 773.13 570.00 774.38 568.78 774.40 C 564.45 774.82 559.92 774.77 556.06 777.07 C 550.13 779.68 545.86 785.48 545.20 791.94 C 543.48 802.46 551.70 812.80 561.87 814.86 C 571.78 816.17 582.13 809.76 585.40 800.32 C 586.96 795.33 585.49 790.12 585.02 785.16 C 591.34 778.45 597.71 771.78 604.17 765.19 C 611.28 757.59 619.90 750.86 624.10 741.05 C 627.24 734.10 626.23 726.31 626.54 718.92 C 627.17 700.69 626.89 682.45 627.08 664.22 C 633.26 661.64 637.41 655.93 639.65 649.81 L 639.57 651.21 L 640.60 650.81 C 642.67 645.70 642.81 639.66 640.37 634.65 C 639.46 632.70 638.85 630.28 636.56 629.54 L 636.92 630.98 C 634.47 627.80 631.36 625.17 627.93 623.10 L 628.90 623.51 C 628.34 621.36 627.84 619.18 627.89 616.95 C 627.99 587.60 627.85 558.25 628.06 528.89 C 633.76 526.39 638.51 521.74 640.99 516.00 C 671.70 516.43 702.38 514.25 733.09 515.30 C 745.77 515.30 758.44 515.37 771.12 515.29 C 773.96 521.28 778.92 526.27 785.14 528.72 C 784.67 546.82 785.61 564.93 785.53 583.04 C 785.48 590.82 786.96 599.04 783.51 606.36 C 780.70 614.27 773.60 619.27 768.01 625.11 C 757.10 636.14 746.16 647.16 735.57 658.50 C 728.26 666.01 724.60 676.64 724.98 687.05 C 724.37 700.36 725.03 713.68 725.00 727.00 C 725.17 733.45 724.25 740.13 726.60 746.32 C 729.21 754.80 736.33 760.56 742.11 766.86 C 747.69 773.28 753.89 779.12 759.81 785.21 C 762.19 787.16 760.47 790.45 760.59 793.03 C 759.50 801.93 764.43 811.71 773.05 814.89 C 782.26 817.31 792.98 812.88 797.50 804.42 C 801.13 796.22 799.49 785.50 792.36 779.67 C 787.70 775.56 781.30 774.54 775.29 774.96 C 767.19 765.96 757.82 758.18 749.83 749.08 C 746.40 745.11 743.15 740.47 743.34 734.98 C 743.35 719.64 742.93 704.31 743.05 688.97 C 743.10 680.86 746.95 673.19 752.64 667.54 C 764.55 655.17 776.73 643.04 788.80 630.81 C 795.44 623.06 803.15 614.81 803.88 604.08 C 803.34 578.99 804.21 553.86 803.61 528.77 C 808.97 526.71 813.66 522.83 816.43 517.77 C 818.39 519.17 818.59 516.16 819.29 515.11 C 821.13 509.58 821.52 503.56 819.79 497.95 L 818.52 497.79 L 818.67 499.24 C 816.54 491.43 811.00 484.69 803.52 481.48 C 803.76 480.00 803.92 478.51 803.97 477.01 C 803.89 449.21 803.98 421.41 803.68 393.61 C 808.12 391.81 811.83 388.61 814.86 384.96 L 814.59 386.50 C 816.62 385.55 817.66 383.50 818.66 381.63 C 820.83 377.41 822.37 372.74 822.14 367.95 C 821.81 366.64 822.67 364.32 820.87 363.91 L 820.53 365.20 C 818.57 355.87 811.97 347.55 803.06 343.99 C 804.40 337.80 803.27 331.34 803.73 325.04 C 803.62 309.04 804.60 292.98 803.22 277.02 C 804.21 274.33 806.97 272.84 808.71 270.64 C 812.67 266.51 814.26 260.66 814.10 255.04 C 814.31 246.26 807.48 238.18 799.07 236.21 C 795.14 235.84 790.87 235.36 787.23 237.23 C 780.03 240.47 774.46 247.90 774.76 255.99 C 774.52 264.01 779.36 271.37 785.56 276.10 C 785.44 299.18 785.41 322.27 785.56 345.36 C 781.06 347.20 777.16 350.30 773.99 353.96 L 774.20 352.60 C 770.39 354.11 770.78 360.79 765.91 359.98 C 755.35 360.29 744.79 360.23 734.23 360.48 C 722.51 359.89 710.76 360.41 699.05 360.63 C 693.29 360.03 687.52 360.11 681.77 360.62 C 668.63 360.26 655.48 360.19 642.34 360.38 C 641.55 359.11 640.72 357.86 639.83 356.68 L 639.62 358.19 C 635.22 346.56 621.47 339.86 609.63 343.56 C 603.31 346.28 597.93 351.17 594.55 357.15 C 591.59 357.05 591.57 360.77 591.12 362.88 C 590.96 368.37 590.00 375.40 594.36 379.47 L 594.18 377.83 C 596.79 383.87 601.31 389.10 607.19 392.15 C 608.36 395.66 607.92 399.39 608.00 403.03 C 608.06 429.27 607.85 455.52 608.19 481.76 C 601.54 484.96 596.03 490.68 593.76 497.78 C 590.62 497.90 591.40 502.69 590.91 505.01 C 591.73 508.79 590.76 513.76 594.12 516.41 L 594.23 514.74 C 596.52 520.60 600.78 525.88 606.59 528.51 C 607.76 557.72 606.32 586.99 607.41 616.21 C 607.74 615.58 608.40 614.33 608.73 613.70 C 608.83 615.25 608.94 616.79 609.03 618.36 C 607.25 618.19 607.30 622.09 609.05 622.10 C 604.74 624.25 600.98 627.16 598.10 631.03 C 597.67 631.02 596.82 631.00 596.40 630.99 C 593.48 629.47 590.09 630.19 586.95 630.07 C 565.28 629.98 543.61 630.01 521.94 630.00 C 518.25 630.01 514.55 629.86 510.89 630.40 C 511.45 630.64 512.57 631.14 513.13 631.38 C 505.66 632.46 499.92 637.92 495.33 643.52 C 490.74 649.15 487.27 656.19 487.11 663.52 C 486.43 686.66 486.58 709.81 487.02 732.95 C 486.68 743.70 488.31 755.29 482.84 765.08 C 480.60 768.04 478.05 770.75 474.98 772.88 C 467.44 777.31 458.47 776.45 450.08 776.71 C 441.95 776.64 433.77 777.46 425.68 776.33 L 425.69 776.27 C 421.88 771.66 416.56 768.76 411.02 766.99 C 410.00 753.33 409.74 739.64 410.03 725.93 C 409.98 715.96 411.89 705.51 408.08 695.97 C 404.38 686.76 396.40 680.44 389.94 673.25 L 391.45 673.42 C 388.25 668.75 383.48 665.45 379.71 661.27 C 375.96 657.98 372.98 653.72 368.74 651.07 L 367.29 651.14 C 362.90 646.94 358.58 642.68 354.36 638.32 C 362.24 633.97 371.52 635.95 380.03 636.62 C 389.16 637.12 398.25 638.39 407.42 638.01 C 416.90 638.56 426.31 635.04 433.70 629.21 C 436.15 629.83 437.85 627.85 439.35 626.26 C 440.26 625.16 441.54 623.85 440.86 622.27 C 444.73 617.88 448.01 613.03 450.74 607.87 L 450.38 609.59 L 451.66 608.82 C 454.88 602.63 457.16 595.68 457.10 588.65 L 456.02 589.10 C 456.79 583.75 456.76 578.27 458.35 573.07 C 459.89 567.48 462.88 562.35 466.75 558.05 L 466.38 559.65 C 469.62 557.46 472.26 554.45 474.70 551.41 L 473.03 551.76 C 477.00 548.08 481.73 545.36 486.68 543.22 C 487.03 543.47 487.73 543.97 488.08 544.22 C 492.72 542.87 497.33 541.39 502.13 540.68 C 501.43 540.15 500.70 539.71 499.92 539.35 C 500.63 539.27 502.05 539.09 502.76 539.01 L 503.08 540.09 C 516.39 540.19 529.71 539.81 543.03 540.16 C 546.88 540.42 551.11 539.00 554.62 541.17 C 545.70 550.15 536.91 559.26 528.27 568.51 C 523.78 572.94 523.48 581.33 528.75 585.28 C 530.78 587.25 533.69 587.17 536.32 587.01 C 535.62 589.41 540.51 587.75 537.92 586.62 C 538.75 586.36 539.56 586.05 540.35 585.68 C 541.90 586.84 543.27 585.28 544.31 584.32 C 546.98 581.62 549.62 578.90 552.25 576.17 C 553.12 575.09 554.51 573.91 553.89 572.33 C 556.45 569.49 559.15 566.79 561.81 564.04 L 561.37 565.62 C 565.57 563.20 568.02 558.76 571.70 555.70 C 575.45 551.64 579.96 548.20 583.04 543.59 L 581.75 543.42 C 585.02 539.96 589.04 536.83 590.50 532.09 C 592.10 527.26 589.95 522.05 586.68 518.46 C 574.68 505.25 562.33 492.38 549.89 479.59 C 550.56 477.46 548.47 476.08 547.32 474.69 C 543.96 471.39 540.34 467.06 535.10 467.68 C 533.53 468.07 530.53 467.02 530.42 469.47 L 532.19 469.24 C 527.00 470.82 523.51 476.45 525.27 481.77 C 527.46 487.26 532.42 490.88 536.09 495.33 L 536.03 496.74 C 537.96 499.76 540.48 502.64 543.61 504.46 L 543.24 502.90 C 546.59 506.08 549.84 509.38 553.04 512.72 L 551.54 512.37 C 552.37 513.64 553.23 514.93 554.06 516.22 C 548.81 517.38 543.40 516.88 538.07 517.00 C 525.66 517.11 513.24 516.78 500.84 517.18 C 501.19 517.55 501.90 518.30 502.26 518.67 C 489.27 519.82 476.78 524.78 466.09 532.15 C 454.05 540.49 443.97 552.22 439.33 566.26 L 439.25 564.78 L 438.08 565.15 C 436.52 568.21 436.40 571.75 435.59 575.05 C 434.22 580.63 435.30 586.49 433.73 592.04 C 433.03 596.05 430.76 599.49 429.50 603.31 L 430.85 602.98 C 426.50 609.54 420.60 614.85 414.86 620.16 C 402.61 619.09 390.27 619.51 378.05 618.03 C 370.43 617.39 362.60 615.90 355.05 617.94 C 349.68 619.34 344.32 620.81 339.08 622.61 C 331.15 614.96 322.87 607.68 314.73 600.27 C 309.18 594.36 302.97 588.24 301.07 580.07 L 302.17 580.56 C 301.94 575.00 300.75 569.52 300.99 563.94 C 301.22 553.14 300.48 542.30 301.56 531.53 L 300.54 531.57 C 307.76 527.83 313.06 520.87 314.75 512.91 C 314.79 513.55 314.88 514.83 314.93 515.46 C 316.64 513.73 316.02 511.14 316.19 508.96 C 316.15 504.39 316.36 499.02 312.81 495.60 L 312.87 497.21 C 312.09 495.83 311.26 494.44 311.22 492.82 L 311.56 493.30 C 315.10 487.50 319.45 482.06 324.99 478.05 C 332.16 472.69 340.34 468.90 348.58 465.50 C 354.59 463.17 360.90 461.05 365.86 456.76 C 370.97 452.18 375.52 446.94 378.91 440.94 L 378.57 442.47 C 380.57 441.82 381.05 439.60 381.87 437.94 C 385.64 429.52 387.62 420.25 387.14 411.01 C 386.88 407.94 388.03 404.41 386.03 401.75 C 385.99 399.27 385.99 396.80 386.02 394.32 C 387.60 393.00 387.23 390.89 387.25 389.08 C 386.96 378.07 387.46 367.05 387.05 356.04 C 386.93 351.88 388.08 347.82 388.19 343.66 L 386.98 343.91 C 388.99 334.95 394.77 327.41 400.69 320.61 C 410.06 309.71 419.70 299.02 430.25 289.24 C 442.80 276.55 455.91 264.45 469.44 252.80 C 471.80 255.35 475.51 256.16 478.87 255.90 C 488.26 254.59 496.89 249.00 502.21 241.20 C 505.18 236.99 504.99 231.06 502.21 226.81 C 497.61 219.59 491.95 213.06 485.69 207.23 C 482.47 203.97 477.38 204.57 473.28 205.24 M 571.45 229.87 C 569.14 234.29 566.14 238.30 563.47 242.51 C 547.07 268.33 530.79 294.23 514.30 320.00 L 514.10 319.40 C 512.54 318.41 510.99 322.09 512.98 322.09 C 493.48 353.30 473.02 383.91 453.25 414.95 C 452.62 412.34 449.41 416.90 451.91 417.03 C 446.00 427.02 438.68 436.16 433.36 446.49 C 433.20 448.76 432.47 450.96 432.30 453.22 C 429.42 467.79 426.37 482.32 423.36 496.86 C 423.25 497.40 423.02 498.46 422.90 498.99 C 426.85 501.04 430.73 503.21 434.66 505.30 C 434.24 505.45 433.41 505.74 432.99 505.89 C 429.46 504.90 426.79 502.00 423.21 501.08 C 421.02 503.38 421.26 506.69 420.36 509.54 C 418.83 514.47 418.67 519.68 417.62 524.72 C 417.10 527.08 417.00 529.51 417.18 531.92 C 423.20 528.98 427.50 523.62 433.16 520.14 C 436.62 517.53 440.24 515.13 443.62 512.42 C 441.25 510.83 438.65 509.58 436.35 507.89 C 436.43 507.52 436.60 506.78 436.69 506.41 C 439.53 507.72 442.05 509.87 444.92 510.96 C 457.57 501.66 470.68 493.00 483.35 483.74 L 483.45 483.51 C 486.03 481.46 489.47 480.25 491.16 477.25 C 493.62 473.28 496.22 469.38 498.59 465.35 L 498.80 465.29 C 507.24 451.97 516.19 438.97 524.28 425.43 C 537.61 404.41 551.04 383.46 564.54 362.55 C 584.96 330.06 606.03 297.98 626.20 265.33 C 619.66 261.02 613.14 256.67 606.52 252.50 C 595.12 244.52 583.29 237.15 571.45 229.87 Z" />
<path fill="#6a50a3" opacity="1.00" d=" M 639.10 379.96 C 640.57 379.98 642.04 380.01 643.52 380.07 C 647.16 381.73 651.17 380.94 655.02 380.97 C 683.67 381.42 712.33 380.94 740.99 381.20 C 751.22 381.34 761.47 380.72 771.69 381.47 C 774.63 386.87 779.45 391.07 785.16 393.33 C 785.81 409.88 785.33 426.46 785.52 443.01 C 785.29 455.69 785.76 468.37 785.49 481.05 C 778.49 483.87 772.48 489.54 770.21 496.85 C 748.81 496.28 727.39 497.17 705.98 496.93 C 684.27 496.79 662.54 496.86 640.83 497.10 C 638.74 491.32 634.47 486.53 629.20 483.45 C 628.94 473.64 629.08 463.82 628.88 454.01 C 627.78 435.04 628.43 416.04 628.27 397.05 C 628.26 395.39 628.13 393.69 627.19 392.28 C 632.01 389.06 635.75 384.63 639.10 379.96 Z" />
</g>
<g id="#462690ff">
<path fill="#462690" opacity="1.00" d=" M 289.36 131.10 C 416.56 130.86 543.77 131.07 670.98 130.99 C 693.19 131.07 715.40 130.86 737.61 131.10 C 733.84 132.18 729.91 132.17 726.03 132.03 C 582.34 132.10 438.66 132.05 294.98 132.02 C 293.06 131.99 291.21 131.52 289.36 131.10 Z" />
</g>
<g id="#5a3e9aff">
<path fill="#5a3e9a" opacity="1.00" d=" M 739.67 132.87 C 740.17 132.48 741.15 131.72 741.65 131.34 C 752.50 131.93 763.24 133.74 773.79 136.33 C 772.29 136.95 770.68 137.39 769.09 136.88 C 759.44 134.67 749.58 133.19 739.67 132.87 Z" />
</g>
<g id="#553a98ff">
<path fill="#553a98" opacity="1.00" d=" M 229.25 143.61 C 236.39 140.57 243.82 138.14 251.40 136.51 C 251.59 136.82 251.96 137.42 252.15 137.73 C 246.04 139.26 239.98 141.01 234.11 143.28 C 232.56 144.01 230.88 143.87 229.25 143.61 Z" />
</g>
<g id="#573c9aff">
<path fill="#573c9a" opacity="1.00" d=" M 786.84 141.91 C 786.99 141.60 787.28 140.98 787.43 140.68 C 790.35 141.16 793.02 142.53 795.77 143.55 C 792.76 144.91 789.71 142.69 786.84 141.91 Z" />
</g>
<g id="#563a98ff">
<path fill="#563a98" opacity="1.00" d=" M 206.27 154.58 C 213.00 150.66 220.03 147.23 227.27 144.38 L 228.06 145.31 C 222.81 148.10 217.17 150.09 212.00 153.05 C 210.19 153.83 208.34 155.58 206.27 154.58 Z" />
<path fill="#563a98" opacity="1.00" d=" M 561.81 564.04 C 568.32 557.03 575.05 550.24 581.75 543.42 L 583.04 543.59 C 579.96 548.20 575.45 551.64 571.70 555.70 C 568.02 558.76 565.57 563.20 561.37 565.62 L 561.81 564.04 Z" />
</g>
<g id="#361e89ff">
<path fill="#361e89" opacity="1.00" d=" M 169.98 182.18 C 170.04 182.12 170.16 182.00 170.22 181.94 C 170.16 182.00 170.04 182.12 169.98 182.18 Z" />
</g>
<g id="#f8f4efff">
<path fill="#f8f4ef" opacity="1.00" d=" M 590.86 198.92 C 595.83 193.55 603.30 189.66 610.75 191.33 C 614.48 192.62 617.68 195.00 620.95 197.13 C 627.71 201.70 634.76 205.81 641.49 210.43 C 646.26 213.54 648.18 219.60 648.02 225.06 C 648.16 229.04 645.87 232.50 644.15 235.92 C 641.42 240.66 638.55 245.30 635.80 250.02 C 635.49 250.55 634.89 251.61 634.59 252.14 C 634.31 252.04 633.76 251.84 633.48 251.74 C 615.30 240.42 597.72 228.15 579.71 216.56 C 583.35 210.64 586.36 204.25 590.86 198.92 Z" />
<path fill="#f8f4ef" opacity="1.00" d=" M 532.19 469.24 C 534.98 468.82 538.08 468.60 540.48 470.39 C 544.05 472.98 546.77 476.51 549.89 479.59 C 562.33 492.38 574.68 505.25 586.68 518.46 C 589.95 522.05 592.10 527.26 590.50 532.09 C 589.04 536.83 585.02 539.96 581.75 543.42 C 575.05 550.24 568.32 557.03 561.81 564.04 C 559.15 566.79 556.45 569.49 553.89 572.33 C 549.40 576.79 545.48 581.91 540.35 585.68 C 539.56 586.05 538.75 586.36 537.92 586.62 C 537.52 586.72 536.72 586.91 536.32 587.01 C 533.69 587.17 530.78 587.25 528.75 585.28 C 523.48 581.33 523.78 572.94 528.27 568.51 C 536.91 559.26 545.70 550.15 554.62 541.17 C 555.46 540.16 556.22 539.09 556.99 538.02 C 551.32 538.00 545.67 538.39 540.01 538.49 C 527.59 539.06 515.17 538.51 502.76 539.01 C 502.05 539.09 500.63 539.27 499.92 539.35 C 495.38 540.16 490.92 541.41 486.68 543.22 C 481.73 545.36 477.00 548.08 473.03 551.76 C 470.73 553.64 468.64 555.76 466.75 558.05 C 462.88 562.35 459.89 567.48 458.35 573.07 C 456.76 578.27 456.79 583.75 456.02 589.10 C 455.47 595.63 453.49 601.94 450.74 607.87 C 448.01 613.03 444.73 617.88 440.86 622.27 C 438.66 624.76 436.30 627.13 433.70 629.21 C 426.31 635.04 416.90 638.56 407.42 638.01 C 406.35 635.19 405.00 631.73 406.77 628.92 C 409.06 625.66 412.01 622.93 414.86 620.16 C 420.60 614.85 426.50 609.54 430.85 602.98 C 438.69 592.20 434.94 578.19 439.33 566.26 C 443.97 552.22 454.05 540.49 466.09 532.15 C 476.78 524.78 489.27 519.82 502.26 518.67 C 510.17 517.93 518.12 518.51 526.05 518.32 C 536.61 518.14 547.18 518.16 557.74 517.72 C 556.33 515.91 554.73 514.26 553.04 512.72 C 549.84 509.38 546.59 506.08 543.24 502.90 C 540.88 500.36 538.45 497.88 536.09 495.33 C 532.42 490.88 527.46 487.26 525.27 481.77 C 523.51 476.45 527.00 470.82 532.19 469.24 Z" />
</g>
<g id="#f8f5f0ff">
<path fill="#f8f5f0" opacity="1.00" d=" M 473.28 205.24 C 477.38 204.57 482.47 203.97 485.69 207.23 C 491.95 213.06 497.61 219.59 502.21 226.81 C 504.99 231.06 505.18 236.99 502.21 241.20 C 496.89 249.00 488.26 254.59 478.87 255.90 C 475.51 256.16 471.80 255.35 469.44 252.80 C 465.29 248.24 460.34 244.36 456.90 239.19 C 453.68 234.71 452.78 228.48 455.57 223.56 C 459.46 215.97 465.22 208.61 473.28 205.24 Z" />
</g>
<g id="#f9f5f0ff">
<path fill="#f9f5f0" opacity="1.00" d=" M 571.45 229.87 C 583.29 237.15 595.12 244.52 606.52 252.50 C 605.28 252.34 604.04 252.24 602.81 252.14 C 587.87 275.43 572.98 298.75 558.17 322.12 C 537.76 354.67 516.89 386.91 496.30 419.34 C 491.05 427.69 485.35 435.74 480.01 444.04 C 475.12 451.85 470.44 459.80 465.09 467.31 C 454.63 460.19 443.45 454.12 433.36 446.49 C 438.68 436.16 446.00 427.02 451.91 417.03 C 452.25 416.51 452.91 415.47 453.25 414.95 C 473.02 383.91 493.48 353.30 512.98 322.09 C 513.31 321.57 513.97 320.52 514.30 320.00 C 530.79 294.23 547.07 268.33 563.47 242.51 C 566.14 238.30 569.14 234.29 571.45 229.87 Z" />
</g>
<g id="#593d99ff">
<path fill="#593d99" opacity="1.00" d=" M 135.60 231.14 C 136.65 233.01 135.47 234.91 134.80 236.67 C 130.41 246.43 127.13 256.69 124.81 267.14 C 124.44 266.95 123.69 266.57 123.31 266.38 C 126.17 254.25 130.20 242.37 135.60 231.14 Z" />
</g>
<g id="#5848b4ff">
<path fill="#5848b4" opacity="1.00" d=" M 226.77 234.13 C 227.21 232.27 229.64 233.09 231.01 232.76 C 235.82 232.72 241.50 234.23 244.33 238.38 L 242.85 238.14 C 238.93 235.31 234.06 233.54 229.20 234.38 C 228.59 234.32 227.37 234.19 226.77 234.13 Z" />
</g>
<g id="#f48f41ff">
<path fill="#f48f41" opacity="1.00" d=" M 229.20 234.38 C 234.06 233.54 238.93 235.31 242.85 238.14 C 246.51 241.64 249.79 245.81 250.84 250.89 C 251.92 254.82 251.00 258.85 250.11 262.71 C 248.87 265.73 250.79 268.44 251.88 271.14 C 255.99 281.51 255.95 293.21 252.60 303.79 C 248.36 314.48 239.89 322.73 235.15 333.17 C 231.06 341.22 232.80 351.33 237.62 358.69 C 239.54 361.53 241.93 364.14 244.92 365.87 C 254.39 371.39 266.14 370.11 275.86 375.11 C 286.24 380.52 295.87 389.21 298.88 400.89 C 299.23 409.99 298.75 419.12 299.38 428.22 C 299.68 444.41 300.34 460.60 299.89 476.79 C 299.17 478.52 298.54 480.29 297.89 482.07 C 296.64 484.88 293.32 483.71 290.92 483.89 C 287.79 483.72 284.81 484.85 281.94 485.94 C 282.15 463.94 281.66 441.93 282.01 419.93 C 281.88 418.34 281.43 416.80 281.10 415.25 C 281.25 410.27 280.32 405.10 277.35 400.99 C 273.74 395.81 267.99 392.71 262.14 390.73 C 256.26 388.20 249.73 388.29 243.63 386.59 C 232.57 382.79 222.79 374.74 217.98 363.96 C 213.55 355.13 212.36 344.78 214.52 335.17 C 217.27 324.33 224.65 315.64 229.85 305.97 C 232.73 301.48 235.61 296.44 234.98 290.90 C 234.35 285.83 233.13 280.72 230.73 276.18 C 228.23 275.38 225.74 274.55 223.23 273.75 C 219.93 272.27 217.27 269.76 215.19 266.85 C 211.21 261.09 210.86 253.62 213.28 247.18 C 215.87 240.42 222.05 235.49 229.20 234.38 Z" />
<path fill="#f48f41" opacity="1.00" d=" M 292.03 534.02 C 294.85 534.05 297.36 532.62 299.98 531.77 C 299.98 542.87 299.55 553.96 299.88 565.06 C 300.04 570.07 299.87 575.15 301.07 580.07 C 302.97 588.24 309.18 594.36 314.73 600.27 C 322.87 607.68 331.15 614.96 339.08 622.61 C 332.89 624.94 328.30 629.83 323.77 634.42 C 316.14 626.30 307.76 618.93 299.74 611.21 C 292.33 604.27 285.14 596.19 282.93 585.99 C 281.64 581.70 282.26 577.20 281.65 572.82 C 281.02 559.32 280.88 545.78 281.70 532.28 C 285.10 533.07 288.50 534.14 292.03 534.02 Z" />
</g>
<g id="#5a3f9bff">
<path fill="#5a3f9b" opacity="1.00" d=" M 644.15 235.92 L 645.60 235.47 C 643.39 241.01 639.93 246.02 636.69 250.99 L 635.32 251.53 L 635.80 250.02 C 638.55 245.30 641.42 240.66 644.15 235.92 Z" />
</g>
<g id="#57a086ff">
<path fill="#57a086" opacity="1.00" d=" M 787.23 237.23 C 790.87 235.36 795.14 235.84 799.07 236.21 C 807.48 238.18 814.31 246.26 814.10 255.04 C 814.26 260.66 812.67 266.51 808.71 270.64 C 806.97 272.84 804.21 274.33 803.22 277.02 C 804.60 292.98 803.62 309.04 803.73 325.04 C 803.27 331.34 804.40 337.80 803.06 343.99 C 797.30 342.20 790.99 342.82 785.56 345.36 C 785.41 322.27 785.44 299.18 785.56 276.10 C 779.36 271.37 774.52 264.01 774.76 255.99 C 774.46 247.90 780.03 240.47 787.23 237.23 Z" />
<path fill="#57a086" opacity="1.00" d=" M 785.16 393.33 C 791.02 395.75 797.69 395.41 803.68 393.61 C 803.98 421.41 803.89 449.21 803.97 477.01 C 803.92 478.51 803.76 480.00 803.52 481.48 C 797.85 479.03 791.27 478.98 785.49 481.05 C 785.76 468.37 785.29 455.69 785.52 443.01 C 785.33 426.46 785.81 409.88 785.16 393.33 Z" />
</g>
<g id="#5a3f9aff">
<path fill="#5a3f9a" opacity="1.00" d=" M 891.80 243.15 C 891.23 241.52 890.50 239.74 891.56 238.12 C 896.87 250.93 900.44 264.43 902.68 278.11 C 902.33 278.68 901.65 279.83 901.30 280.40 C 899.68 267.65 896.43 255.13 891.80 243.15 Z" />
</g>
<g id="#ef785dff">
<path fill="#ef785d" opacity="1.00" d=" M 436.97 256.94 C 443.71 251.14 449.76 244.50 456.90 239.19 C 460.34 244.36 465.29 248.24 469.44 252.80 C 455.91 264.45 442.80 276.55 430.25 289.24 C 419.70 299.02 410.06 309.71 400.69 320.61 C 394.77 327.41 388.99 334.95 386.98 343.91 C 386.47 346.22 386.15 348.57 386.04 350.93 C 385.89 365.39 385.94 379.86 386.02 394.32 C 385.99 396.80 385.99 399.27 386.03 401.75 C 386.62 415.12 385.32 428.94 378.91 440.94 C 375.52 446.94 370.97 452.18 365.86 456.76 C 360.90 461.05 354.59 463.17 348.58 465.50 C 340.34 468.90 332.16 472.69 324.99 478.05 C 319.45 482.06 315.10 487.50 311.56 493.30 L 311.22 492.82 C 310.53 491.31 309.12 490.59 307.59 490.21 C 307.57 489.38 307.55 488.55 307.54 487.74 C 304.02 486.43 299.99 485.51 297.89 482.07 C 298.54 480.29 299.17 478.52 299.89 476.79 C 300.68 475.62 301.49 474.48 302.30 473.35 C 309.54 463.67 319.72 456.21 331.20 452.41 C 336.60 450.65 341.80 448.36 346.86 445.80 C 354.83 441.85 361.50 435.08 364.85 426.78 C 366.86 421.77 367.41 416.35 367.73 411.01 C 367.97 388.32 367.07 365.58 368.20 342.91 C 369.83 326.47 381.23 313.62 391.89 301.95 C 406.60 286.64 421.64 271.64 436.97 256.94 Z" />
</g>
<g id="#5d4bb1ff">
<path fill="#5d4bb1" opacity="1.00" d=" M 210.02 256.09 C 210.39 252.59 210.18 247.73 213.35 245.60 L 213.28 247.18 C 210.86 253.62 211.21 261.09 215.19 266.85 L 215.38 268.33 C 211.35 265.87 210.79 260.36 210.02 256.09 Z" />
</g>
<g id="#e4dcd9ff">
<path fill="#e4dcd9" opacity="1.00" d=" M 558.17 322.12 C 572.98 298.75 587.87 275.43 602.81 252.14 C 604.04 252.24 605.28 252.34 606.52 252.50 C 613.14 256.67 619.66 261.02 626.20 265.33 C 606.03 297.98 584.96 330.06 564.54 362.55 C 551.04 383.46 537.61 404.41 524.28 425.43 C 516.19 438.97 507.24 451.97 498.80 465.29 L 498.59 465.35 C 497.73 465.39 497.07 465.76 496.61 466.46 C 493.08 471.10 491.18 477.16 486.11 480.46 C 478.69 476.79 472.22 471.49 465.09 467.31 C 470.44 459.80 475.12 451.85 480.01 444.04 C 485.35 435.74 491.05 427.69 496.30 419.34 C 516.89 386.91 537.76 354.67 558.17 322.12 Z" />
</g>
<g id="#5848b2ff">
<path fill="#5848b2" opacity="1.00" d=" M 250.11 262.71 C 252.82 269.57 256.24 276.55 256.35 284.13 C 256.57 290.03 256.53 296.08 254.75 301.77 C 254.26 303.09 254.03 304.75 252.58 305.41 L 252.60 303.79 C 255.95 293.21 255.99 281.51 251.88 271.14 C 250.79 268.44 248.87 265.73 250.11 262.71 Z" />
</g>
<g id="#5f4badff">
<path fill="#5f4bad" opacity="1.00" d=" M 221.55 273.57 L 223.23 273.75 C 225.74 274.55 228.23 275.38 230.73 276.18 C 233.13 280.72 234.35 285.83 234.98 290.90 C 235.61 296.44 232.73 301.48 229.85 305.97 L 228.53 306.45 C 229.35 302.74 232.19 299.84 232.80 296.07 C 234.16 290.41 232.37 284.65 230.55 279.32 C 229.20 275.44 223.38 277.05 221.55 273.57 Z" />
</g>
<g id="#3d208eff">
<path fill="#3d208e" opacity="1.00" d=" M 119.09 297.44 C 120.31 303.89 119.93 310.47 119.99 317.00 C 119.92 451.66 120.10 586.33 119.91 721.00 C 119.99 723.57 119.68 726.15 119.09 728.66 C 118.48 704.77 118.94 680.86 118.80 656.96 C 118.83 562.63 118.81 468.30 118.82 373.97 C 118.95 348.46 118.51 322.94 119.09 297.44 Z" />
</g>
<g id="#4a2d92ff">
<path fill="#4a2d92" opacity="1.00" d=" M 903.84 309.00 C 903.79 307.04 904.38 305.16 904.89 303.30 C 905.25 381.87 904.94 460.45 905.05 539.03 C 905.05 599.01 905.04 658.99 905.05 718.97 C 905.47 749.75 898.31 780.81 883.42 807.84 C 882.57 806.00 883.96 804.35 884.65 802.75 C 891.20 790.19 895.77 776.69 899.04 762.93 C 904.31 741.38 904.05 719.06 903.95 697.03 C 903.86 567.69 904.06 438.35 903.84 309.00 Z" />
</g>
<g id="#4c2f92ff">
<path fill="#4c2f92" opacity="1.00" d=" M 512.98 322.09 C 510.99 322.09 512.54 318.41 514.10 319.40 L 514.30 320.00 C 513.97 320.52 513.31 321.57 512.98 322.09 Z" />
</g>
<g id="#5d4aafff">
<path fill="#5d4aaf" opacity="1.00" d=" M 235.15 333.17 L 236.30 332.62 C 235.92 335.49 234.93 338.23 234.40 341.07 C 233.85 346.73 236.08 352.11 238.06 357.27 L 237.62 358.69 C 232.80 351.33 231.06 341.22 235.15 333.17 Z" />
</g>
<g id="#ed5b4fff">
<path fill="#ed5b4f" opacity="1.00" d=" M 609.63 343.56 C 621.47 339.86 635.22 346.56 639.62 358.19 C 640.08 359.46 640.56 360.73 641.06 362.00 C 680.04 361.98 719.01 362.03 757.99 361.98 C 761.77 361.86 765.61 362.07 769.33 361.29 C 771.26 359.16 772.27 356.29 773.99 353.96 C 777.16 350.30 781.06 347.20 785.56 345.36 C 790.99 342.82 797.30 342.20 803.06 343.99 C 811.97 347.55 818.57 355.87 820.53 365.20 C 821.39 372.24 819.15 379.37 814.86 384.96 C 811.83 388.61 808.12 391.81 803.68 393.61 C 797.69 395.41 791.02 395.75 785.16 393.33 C 779.45 391.07 774.63 386.87 771.69 381.47 C 771.28 381.11 770.44 380.39 770.02 380.03 C 727.86 379.99 685.69 379.95 643.52 380.07 C 642.04 380.01 640.57 379.98 639.10 379.96 C 635.75 384.63 632.01 389.06 627.19 392.28 C 626.84 394.50 626.68 396.75 626.69 399.01 C 626.72 426.82 627.38 454.64 627.21 482.45 C 621.27 479.71 614.25 478.98 608.19 481.76 C 607.85 455.52 608.06 429.27 608.00 403.03 C 607.92 399.39 608.36 395.66 607.19 392.15 C 601.31 389.10 596.79 383.87 594.18 377.83 C 591.77 371.21 591.11 363.55 594.55 357.15 C 597.93 351.17 603.31 346.28 609.63 343.56 Z" />
<path fill="#ed5b4f" opacity="1.00" d=" M 607.97 529.15 C 613.97 531.52 620.69 531.55 626.78 529.42 C 626.67 560.49 626.68 591.56 626.83 622.64 C 621.23 620.02 614.81 620.05 609.05 622.10 C 609.13 620.85 609.12 619.60 609.03 618.36 C 608.94 616.79 608.83 615.25 608.73 613.70 C 607.65 585.53 608.39 557.33 607.97 529.15 Z" />
</g>
<g id="#544ab2ff">
<path fill="#544ab2" opacity="1.00" d=" M 386.98 343.91 L 388.19 343.66 C 388.08 347.82 386.93 351.88 387.05 356.04 C 387.46 367.05 386.96 378.07 387.25 389.08 C 387.23 390.89 387.60 393.00 386.02 394.32 C 385.94 379.86 385.89 365.39 386.04 350.93 C 386.15 348.57 386.47 346.22 386.98 343.91 Z" />
</g>
<g id="#5850b2ff">
<path fill="#5850b2" opacity="1.00" d=" M 765.91 359.98 C 770.78 360.79 770.39 354.11 774.20 352.60 L 773.99 353.96 C 772.27 356.29 771.26 359.16 769.33 361.29 C 765.61 362.07 761.77 361.86 757.99 361.98 C 719.01 362.03 680.04 361.98 641.06 362.00 C 640.56 360.73 640.08 359.46 639.62 358.19 L 639.83 356.68 C 640.72 357.86 641.55 359.11 642.34 360.38 C 655.48 360.19 668.63 360.26 681.77 360.62 C 687.52 360.11 693.29 360.03 699.05 360.63 C 710.76 360.41 722.51 359.89 734.23 360.48 C 744.79 360.23 755.35 360.29 765.91 359.98 Z" />
</g>
<g id="#534eb7ff">
<path fill="#534eb7" opacity="1.00" d=" M 591.12 362.88 C 591.57 360.77 591.59 357.05 594.55 357.15 C 591.11 363.55 591.77 371.21 594.18 377.83 L 594.36 379.47 C 590.00 375.40 590.96 368.37 591.12 362.88 Z" />
</g>
<g id="#5550b4ff">
<path fill="#5550b4" opacity="1.00" d=" M 820.87 363.91 C 822.67 364.32 821.81 366.64 822.14 367.95 C 822.37 372.74 820.83 377.41 818.66 381.63 C 817.66 383.50 816.62 385.55 814.59 386.50 L 814.86 384.96 C 819.15 379.37 821.39 372.24 820.53 365.20 L 820.87 363.91 Z" />
</g>
<g id="#604cadff">
<path fill="#604cad" opacity="1.00" d=" M 244.69 364.56 C 254.71 369.36 266.39 368.61 276.34 373.64 C 276.59 374.05 277.09 374.86 277.34 375.27 L 275.86 375.11 C 266.14 370.11 254.39 371.39 244.92 365.87 L 244.69 364.56 Z" />
</g>
<g id="#4d51bbff">
<path fill="#4d51bb" opacity="1.00" d=" M 643.52 380.07 C 685.69 379.95 727.86 379.99 770.02 380.03 C 770.44 380.39 771.28 381.11 771.69 381.47 C 761.47 380.72 751.22 381.34 740.99 381.20 C 712.33 380.94 683.67 381.42 655.02 380.97 C 651.17 380.94 647.16 381.73 643.52 380.07 Z" />
</g>
<g id="#5848b1ff">
<path fill="#5848b1" opacity="1.00" d=" M 259.60 390.76 C 260.24 390.76 261.51 390.74 262.14 390.73 C 267.99 392.71 273.74 395.81 277.35 400.99 L 277.64 402.59 C 274.20 400.39 271.99 396.64 268.16 394.97 C 265.46 393.25 261.89 393.05 259.60 390.76 Z" />
</g>
<g id="#5a4fb2ff">
<path fill="#5a4fb2" opacity="1.00" d=" M 627.19 392.28 C 628.13 393.69 628.26 395.39 628.27 397.05 C 628.43 416.04 627.78 435.04 628.88 454.01 C 629.08 463.82 628.94 473.64 629.20 483.45 C 628.70 483.20 627.71 482.70 627.21 482.45 C 627.38 454.64 626.72 426.82 626.69 399.01 C 626.68 396.75 626.84 394.50 627.19 392.28 Z" />
</g>
<g id="#544bb1ff">
<path fill="#544bb1" opacity="1.00" d=" M 386.03 401.75 C 388.03 404.41 386.88 407.94 387.14 411.01 C 387.62 420.25 385.64 429.52 381.87 437.94 C 381.05 439.60 380.57 441.82 378.57 442.47 L 378.91 440.94 C 385.32 428.94 386.62 415.12 386.03 401.75 Z" />
</g>
<g id="#4c42b9ff">
<path fill="#4c42b9" opacity="1.00" d=" M 299.38 428.22 C 300.32 423.47 299.22 418.56 300.45 413.88 C 301.21 431.58 300.93 449.32 301.06 467.04 C 300.98 469.21 301.45 471.35 302.30 473.35 C 301.49 474.48 300.68 475.62 299.89 476.79 C 300.34 460.60 299.68 444.41 299.38 428.22 Z" />
</g>
<g id="#4e3194ff">
<path fill="#4e3194" opacity="1.00" d=" M 451.91 417.03 C 449.41 416.90 452.62 412.34 453.25 414.95 C 452.91 415.47 452.25 416.51 451.91 417.03 Z" />
</g>
<g id="#4c44b8ff">
<path fill="#4c44b8" opacity="1.00" d=" M 279.51 416.33 C 279.91 416.06 280.71 415.52 281.10 415.25 C 280.79 418.37 280.55 421.51 280.40 424.65 C 279.43 445.42 280.66 466.23 280.10 487.01 L 279.22 487.64 C 278.72 468.46 279.14 449.26 279.00 430.07 C 279.15 425.50 278.58 420.84 279.51 416.33 Z" />
</g>
<g id="#fe9d2dff">
<path fill="#fe9d2d" opacity="1.00" d=" M 281.10 415.25 C 281.43 416.80 281.88 418.34 282.01 419.93 C 281.66 441.93 282.15 463.94 281.94 485.94 C 281.64 486.10 281.04 486.42 280.74 486.58 C 280.62 465.94 280.96 445.28 280.40 424.65 C 280.55 421.51 280.79 418.37 281.10 415.25 Z" />
</g>
<g id="#d47e62ff">
<path fill="#d47e62" opacity="1.00" d=" M 280.10 487.01 C 280.66 466.23 279.43 445.42 280.40 424.65 C 280.96 445.28 280.62 465.94 280.74 486.58 L 280.10 487.01 Z" />
</g>
<g id="#594eafff">
<path fill="#594eaf" opacity="1.00" d=" M 334.61 449.54 C 339.03 448.31 342.82 445.43 347.36 444.58 L 346.86 445.80 C 341.80 448.36 336.60 450.65 331.20 452.41 L 329.81 452.19 C 330.68 450.37 332.97 450.29 334.61 449.54 Z" />
</g>
<g id="#d5cacaff">
<path fill="#d5caca" opacity="1.00" d=" M 432.30 453.22 C 432.47 450.96 433.20 448.76 433.36 446.49 C 443.45 454.12 454.63 460.19 465.09 467.31 C 472.22 471.49 478.69 476.79 486.11 480.46 C 485.02 481.29 483.76 482.07 483.45 483.51 L 483.35 483.74 C 470.68 493.00 457.57 501.66 444.92 510.96 C 442.05 509.87 439.53 507.72 436.69 506.41 C 436.01 506.03 435.33 505.66 434.66 505.30 C 430.73 503.21 426.85 501.04 422.90 498.99 C 423.02 498.46 423.25 497.40 423.36 496.86 C 423.73 496.57 424.47 495.98 424.84 495.69 C 427.82 484.02 429.87 472.12 432.50 460.37 C 433.16 458.00 432.90 455.56 432.30 453.22 Z" />
</g>
<g id="#e4dcd0ff">
<path fill="#e4dcd0" opacity="1.00" d=" M 432.30 453.22 C 432.90 455.56 433.16 458.00 432.50 460.37 C 429.87 472.12 427.82 484.02 424.84 495.69 C 424.47 495.98 423.73 496.57 423.36 496.86 C 426.37 482.32 429.42 467.79 432.30 453.22 Z" />
</g>
<g id="#573b98ff">
<path fill="#573b98" opacity="1.00" d=" M 530.42 469.47 C 530.53 467.02 533.53 468.07 535.10 467.68 C 540.34 467.06 543.96 471.39 547.32 474.69 C 548.47 476.08 550.56 477.46 549.89 479.59 C 546.77 476.51 544.05 472.98 540.48 470.39 C 538.08 468.60 534.98 468.82 532.19 469.24 L 530.42 469.47 Z" />
</g>
<g id="#f7f3eeff">
<path fill="#f7f3ee" opacity="1.00" d=" M 608.19 481.76 C 614.25 478.98 621.27 479.71 627.21 482.45 C 627.71 482.70 628.70 483.20 629.20 483.45 C 634.47 486.53 638.74 491.32 640.83 497.10 C 643.21 503.15 643.26 509.91 640.99 516.00 C 638.51 521.74 633.76 526.39 628.06 528.89 C 627.74 529.03 627.10 529.29 626.78 529.42 C 620.69 531.55 613.97 531.52 607.97 529.15 C 607.62 528.99 606.93 528.67 606.59 528.51 C 600.78 525.88 596.52 520.60 594.23 514.74 C 592.54 509.28 592.23 503.30 593.76 497.78 C 596.03 490.68 601.54 484.96 608.19 481.76 Z" />
</g>
<g id="#f7f3efff">
<path fill="#f7f3ef" opacity="1.00" d=" M 785.49 481.05 C 791.27 478.98 797.85 479.03 803.52 481.48 C 811.00 484.69 816.54 491.43 818.67 499.24 C 819.61 505.44 819.57 512.15 816.43 517.77 C 813.66 522.83 808.97 526.71 803.61 528.77 C 797.72 530.79 791.01 530.77 785.14 528.72 C 778.92 526.27 773.96 521.28 771.12 515.29 C 768.59 509.52 768.32 502.85 770.21 496.85 C 772.48 489.54 778.49 483.87 785.49 481.05 Z" />
</g>
<g id="#ef6a57ff">
<path fill="#ef6a57" opacity="1.00" d=" M 297.89 482.07 C 299.99 485.51 304.02 486.43 307.54 487.74 C 307.55 488.55 307.57 489.38 307.59 490.21 C 309.12 490.59 310.53 491.31 311.22 492.82 C 311.26 494.44 312.09 495.83 312.87 497.21 C 314.88 502.19 315.53 507.59 314.75 512.91 C 313.06 520.87 307.76 527.83 300.54 531.57 L 299.98 531.77 C 297.36 532.62 294.85 534.05 292.03 534.02 C 288.50 534.14 285.10 533.07 281.70 532.28 L 280.38 531.92 C 276.85 529.84 273.69 527.16 271.11 523.99 C 258.36 524.06 245.61 523.90 232.87 524.06 C 222.13 526.10 211.93 533.18 207.66 543.45 L 207.41 543.55 C 206.52 543.83 205.55 544.26 205.27 545.26 C 203.99 548.47 203.68 552.02 201.89 555.04 C 200.49 554.09 199.12 553.12 197.76 552.12 C 197.62 554.01 197.20 555.88 196.01 557.42 C 195.14 556.11 194.30 554.79 193.47 553.47 C 191.71 553.52 189.95 553.58 188.19 553.66 C 187.58 548.85 189.54 544.28 190.64 539.70 C 191.64 535.36 195.19 532.09 195.76 527.61 C 195.98 526.36 196.92 525.45 197.68 524.51 C 205.29 515.91 215.46 509.74 226.47 506.55 C 239.64 503.53 253.19 506.70 266.49 505.38 C 266.79 505.27 267.38 505.05 267.68 504.94 C 268.82 497.82 273.46 491.75 279.22 487.64 L 280.10 487.01 L 280.74 486.58 C 281.04 486.42 281.64 486.10 281.94 485.94 C 284.81 484.85 287.79 483.72 290.92 483.89 C 293.32 483.71 296.64 484.88 297.89 482.07 Z" />
</g>
<g id="#544eb3ff">
<path fill="#544eb3" opacity="1.00" d=" M 312.81 495.60 C 316.36 499.02 316.15 504.39 316.19 508.96 C 316.02 511.14 316.64 513.73 314.93 515.46 C 314.88 514.83 314.79 513.55 314.75 512.91 C 315.53 507.59 314.88 502.19 312.87 497.21 L 312.81 495.60 Z" />
</g>
<g id="#543797ff">
<path fill="#543797" opacity="1.00" d=" M 536.09 495.33 C 538.45 497.88 540.88 500.36 543.24 502.90 L 543.61 504.46 C 540.48 502.64 537.96 499.76 536.03 496.74 L 536.09 495.33 Z" />
</g>
<g id="#579f86ff">
<path fill="#579f86" opacity="1.00" d=" M 640.83 497.10 C 662.54 496.86 684.27 496.79 705.98 496.93 C 727.39 497.17 748.81 496.28 770.21 496.85 C 768.32 502.85 768.59 509.52 771.12 515.29 C 758.44 515.37 745.77 515.30 733.09 515.30 C 702.38 514.25 671.70 516.43 640.99 516.00 C 643.26 509.91 643.21 503.15 640.83 497.10 Z" />
<path fill="#579f86" opacity="1.00" d=" M 355.05 617.94 C 362.60 615.90 370.43 617.39 378.05 618.03 C 390.27 619.51 402.61 619.09 414.86 620.16 C 412.01 622.93 409.06 625.66 406.77 628.92 C 405.00 631.73 406.35 635.19 407.42 638.01 C 398.25 638.39 389.16 637.12 380.03 636.62 C 371.52 635.95 362.24 633.97 354.36 638.32 C 348.61 640.90 343.24 644.21 338.02 647.71 C 335.45 649.15 333.28 651.15 331.25 653.26 C 318.19 666.52 305.23 679.90 291.79 692.78 C 274.96 710.27 257.46 727.09 240.54 744.49 C 239.23 745.53 240.21 747.27 240.30 748.62 C 242.34 760.05 233.61 772.25 222.07 773.91 C 211.96 774.70 201.86 767.19 200.16 757.09 C 199.75 753.45 199.01 749.68 200.16 746.09 C 202.20 737.06 212.10 730.09 221.30 732.57 C 222.97 732.64 225.07 733.89 226.46 732.45 C 235.63 723.92 243.93 714.51 252.99 705.87 C 259.93 698.83 267.13 692.04 273.81 684.75 C 290.68 668.19 307.08 651.16 323.77 634.42 C 328.30 629.83 332.89 624.94 339.08 622.61 C 344.32 620.81 349.68 619.34 355.05 617.94 Z" />
</g>
<g id="#644ba0ff">
<path fill="#644ba0" opacity="1.00" d=" M 590.91 505.01 C 591.40 502.69 590.62 497.90 593.76 497.78 C 592.23 503.30 592.54 509.28 594.23 514.74 L 594.12 516.41 C 590.76 513.76 591.73 508.79 590.91 505.01 Z" />
</g>
<g id="#593e99ff">
<path fill="#593e99" opacity="1.00" d=" M 818.52 497.79 L 819.79 497.95 C 821.52 503.56 821.13 509.58 819.29 515.11 C 818.59 516.16 818.39 519.17 816.43 517.77 C 819.57 512.15 819.61 505.44 818.67 499.24 L 818.52 497.79 Z" />
</g>
<g id="#715ba9ff">
<path fill="#715ba9" opacity="1.00" d=" M 423.21 501.08 C 426.79 502.00 429.46 504.90 432.99 505.89 C 433.41 505.74 434.24 505.45 434.66 505.30 C 435.33 505.66 436.01 506.03 436.69 506.41 C 436.60 506.78 436.43 507.52 436.35 507.89 C 438.65 509.58 441.25 510.83 443.62 512.42 C 440.24 515.13 436.62 517.53 433.16 520.14 C 427.50 523.62 423.20 528.98 417.18 531.92 C 417.00 529.51 417.10 527.08 417.62 524.72 C 418.67 519.68 418.83 514.47 420.36 509.54 C 421.26 506.69 421.02 503.38 423.21 501.08 Z" />
</g>
<g id="#4d3194ff">
<path fill="#4d3194" opacity="1.00" d=" M 551.54 512.37 L 553.04 512.72 C 554.73 514.26 556.33 515.91 557.74 517.72 C 547.18 518.16 536.61 518.14 526.05 518.32 C 518.12 518.51 510.17 517.93 502.26 518.67 C 501.90 518.30 501.19 517.55 500.84 517.18 C 513.24 516.78 525.66 517.11 538.07 517.00 C 543.40 516.88 548.81 517.38 554.06 516.22 C 553.23 514.93 552.37 513.64 551.54 512.37 Z" />
</g>
<g id="#ee6052ff">
<path fill="#ee6052" opacity="1.00" d=" M 187.52 545.21 C 189.19 538.95 191.49 532.58 195.76 527.61 C 195.19 532.09 191.64 535.36 190.64 539.70 C 189.54 544.28 187.58 548.85 188.19 553.66 C 189.95 553.58 191.71 553.52 193.47 553.47 C 194.30 554.79 195.14 556.11 196.01 557.42 C 197.20 555.88 197.62 554.01 197.76 552.12 C 199.12 553.12 200.49 554.09 201.89 555.04 C 203.68 552.02 203.99 548.47 205.27 545.26 C 205.55 544.26 206.52 543.83 207.41 543.55 C 206.64 546.58 205.21 549.50 205.06 552.68 C 204.69 564.22 204.92 575.78 204.98 587.33 C 204.24 590.31 207.43 591.30 209.32 592.73 C 214.33 596.04 216.45 602.23 216.89 607.97 C 216.54 614.34 213.85 620.61 209.11 624.95 C 203.51 629.23 196.16 631.01 189.23 629.59 C 183.32 628.23 177.81 624.38 175.52 618.62 C 173.40 614.35 173.97 609.50 174.10 604.91 C 175.02 598.56 179.89 593.82 185.15 590.65 C 186.94 589.28 186.48 586.95 186.62 585.00 C 186.89 571.74 185.13 558.36 187.52 545.21 Z" />
</g>
<g id="#4d4eb8ff">
<path fill="#4d4eb8" opacity="1.00" d=" M 606.59 528.51 C 606.93 528.67 607.62 528.99 607.97 529.15 C 608.39 557.33 607.65 585.53 608.73 613.70 C 608.40 614.33 607.74 615.58 607.41 616.21 C 606.32 586.99 607.76 557.72 606.59 528.51 Z" />
</g>
<g id="#484ebcff">
<path fill="#484ebc" opacity="1.00" d=" M 626.78 529.42 C 627.10 529.29 627.74 529.03 628.06 528.89 C 627.85 558.25 627.99 587.60 627.89 616.95 C 627.84 619.18 628.34 621.36 628.90 623.51 L 627.93 623.10 C 627.65 622.98 627.11 622.75 626.83 622.64 C 626.68 591.56 626.67 560.49 626.78 529.42 Z" />
</g>
<g id="#4f8eb8ff">
<path fill="#4f8eb8" opacity="1.00" d=" M 785.14 528.72 C 791.01 530.77 797.72 530.79 803.61 528.77 C 804.21 553.86 803.34 578.99 803.88 604.08 C 803.15 614.81 795.44 623.06 788.80 630.81 C 776.73 643.04 764.55 655.17 752.64 667.54 C 746.95 673.19 743.10 680.86 743.05 688.97 C 742.93 704.31 743.35 719.64 743.34 734.98 C 743.15 740.47 746.40 745.11 749.83 749.08 C 757.82 758.18 767.19 765.96 775.29 774.96 C 781.30 774.54 787.70 775.56 792.36 779.67 C 799.49 785.50 801.13 796.22 797.50 804.42 C 792.98 812.88 782.26 817.31 773.05 814.89 C 764.43 811.71 759.50 801.93 760.59 793.03 C 760.47 790.45 762.19 787.16 759.81 785.21 C 753.89 779.12 747.69 773.28 742.11 766.86 C 736.33 760.56 729.21 754.80 726.60 746.32 C 724.25 740.13 725.17 733.45 725.00 727.00 C 725.03 713.68 724.37 700.36 724.98 687.05 C 724.60 676.64 728.26 666.01 735.57 658.50 C 746.16 647.16 757.10 636.14 768.01 625.11 C 773.60 619.27 780.70 614.27 783.51 606.36 C 786.96 599.04 785.48 590.82 785.53 583.04 C 785.61 564.93 784.67 546.82 785.14 528.72 Z" />
</g>
<g id="#4344c3ff">
<path fill="#4344c3" opacity="1.00" d=" M 279.24 531.63 L 280.38 531.92 L 281.70 532.28 C 280.88 545.78 281.02 559.32 281.65 572.82 C 281.35 573.44 280.75 574.70 280.45 575.32 C 279.62 564.60 280.16 553.82 279.99 543.07 C 279.81 539.25 280.76 535.28 279.24 531.63 Z" />
</g>
<g id="#4c44baff">
<path fill="#4c44ba" opacity="1.00" d=" M 299.98 531.77 L 300.54 531.57 L 301.56 531.53 C 300.48 542.30 301.22 553.14 300.99 563.94 C 300.75 569.52 301.94 575.00 302.17 580.56 L 301.07 580.07 C 299.87 575.15 300.04 570.07 299.88 565.06 C 299.55 553.96 299.98 542.87 299.98 531.77 Z" />
</g>
<g id="#583d99ff">
<path fill="#583d99" opacity="1.00" d=" M 502.76 539.01 C 515.17 538.51 527.59 539.06 540.01 538.49 C 545.67 538.39 551.32 538.00 556.99 538.02 C 556.22 539.09 555.46 540.16 554.62 541.17 C 551.11 539.00 546.88 540.42 543.03 540.16 C 529.71 539.81 516.39 540.19 503.08 540.09 L 502.76 539.01 Z" />
</g>
<g id="#664ca1ff">
<path fill="#664ca1" opacity="1.00" d=" M 486.68 543.22 C 490.92 541.41 495.38 540.16 499.92 539.35 C 500.70 539.71 501.43 540.15 502.13 540.68 C 497.33 541.39 492.72 542.87 488.08 544.22 C 487.73 543.97 487.03 543.47 486.68 543.22 Z" />
</g>
<g id="#4c4db8ff">
<path fill="#4c4db8" opacity="1.00" d=" M 185.17 552.02 C 185.73 549.34 185.13 545.89 187.23 543.86 L 187.52 545.21 C 185.13 558.36 186.89 571.74 186.62 585.00 C 186.48 586.95 186.94 589.28 185.15 590.65 C 185.20 577.78 184.73 564.89 185.17 552.02 Z" />
</g>
<g id="#543998ff">
<path fill="#543998" opacity="1.00" d=" M 466.75 558.05 C 468.64 555.76 470.73 553.64 473.03 551.76 L 474.70 551.41 C 472.26 554.45 469.62 557.46 466.38 559.65 L 466.75 558.05 Z" />
</g>
<g id="#444dbcff">
<path fill="#444dbc" opacity="1.00" d=" M 205.06 552.68 C 206.48 555.22 205.79 558.28 205.98 561.07 C 205.83 569.61 206.38 578.20 205.62 586.71 L 204.98 587.33 C 204.92 575.78 204.69 564.22 205.06 552.68 Z" />
</g>
<g id="#644aa0ff">
<path fill="#644aa0" opacity="1.00" d=" M 438.08 565.15 L 439.25 564.78 L 439.33 566.26 C 434.94 578.19 438.69 592.20 430.85 602.98 L 429.50 603.31 C 430.76 599.49 433.03 596.05 433.73 592.04 C 435.30 586.49 434.22 580.63 435.59 575.05 C 436.40 571.75 436.52 568.21 438.08 565.15 Z" />
</g>
<g id="#553897ff">
<path fill="#553897" opacity="1.00" d=" M 540.35 585.68 C 545.48 581.91 549.40 576.79 553.89 572.33 C 554.51 573.91 553.12 575.09 552.25 576.17 C 549.62 578.90 546.98 581.62 544.31 584.32 C 543.27 585.28 541.90 586.84 540.35 585.68 Z" />
</g>
<g id="#4a2c90ff">
<path fill="#4a2c90" opacity="1.00" d=" M 536.32 587.01 C 536.72 586.91 537.52 586.72 537.92 586.62 C 540.51 587.75 535.62 589.41 536.32 587.01 Z" />
</g>
<g id="#543696ff">
<path fill="#543696" opacity="1.00" d=" M 456.02 589.10 L 457.10 588.65 C 457.16 595.68 454.88 602.63 451.66 608.82 L 450.38 609.59 L 450.74 607.87 C 453.49 601.94 455.47 595.63 456.02 589.10 Z" />
</g>
<g id="#454cccff">
<path fill="#454ccc" opacity="1.00" d=" M 609.05 622.10 C 607.30 622.09 607.25 618.19 609.03 618.36 C 609.12 619.60 609.13 620.85 609.05 622.10 Z" />
</g>
<g id="#f49041ff">
<path fill="#f49041" opacity="1.00" d=" M 609.05 622.10 C 614.81 620.05 621.23 620.02 626.83 622.64 C 627.11 622.75 627.65 622.98 627.93 623.10 C 631.36 625.17 634.47 627.80 636.92 630.98 C 640.65 636.45 642.06 643.52 639.65 649.81 C 637.41 655.93 633.26 661.64 627.08 664.22 C 621.18 666.24 614.60 666.25 608.76 664.04 C 603.93 661.71 599.17 658.17 597.25 652.99 L 597.29 652.69 C 598.33 650.37 596.54 647.86 593.99 648.25 C 571.67 647.72 549.33 648.15 527.00 647.97 C 523.31 647.95 519.47 647.72 516.03 649.29 L 516.57 650.11 L 516.83 650.51 C 512.85 652.34 510.06 655.85 507.59 659.34 L 507.38 659.42 C 505.13 659.74 504.62 662.24 504.27 664.11 C 503.57 669.35 504.19 674.64 504.12 679.91 C 503.77 700.63 504.15 721.34 503.95 742.05 C 504.09 745.62 502.48 749.71 505.03 752.77 C 504.47 761.51 503.69 770.97 497.89 778.02 C 490.37 787.60 478.60 794.03 466.49 794.87 C 464.69 794.37 462.88 793.75 460.99 793.83 C 450.30 794.01 439.61 793.78 428.93 794.04 C 426.35 794.08 424.34 797.36 425.63 799.68 L 425.69 799.92 C 422.70 806.46 415.87 810.52 409.00 811.88 C 403.49 812.04 397.59 812.78 392.61 809.84 L 392.60 809.65 C 392.71 808.68 392.42 807.89 391.73 807.26 C 389.51 804.82 386.67 802.82 385.30 799.73 C 383.93 796.64 383.31 793.28 382.95 789.95 C 382.40 786.02 384.17 782.18 383.46 778.26 C 385.09 773.92 389.08 771.01 392.88 768.63 C 393.16 768.44 393.71 768.07 393.99 767.89 C 394.57 757.90 392.48 748.00 393.10 738.01 C 392.75 732.19 393.94 726.17 392.05 720.54 C 391.79 713.60 393.16 706.02 388.95 699.92 C 385.78 694.38 381.01 690.05 376.55 685.58 C 363.17 673.51 351.02 660.16 338.02 647.71 C 343.24 644.21 348.61 640.90 354.36 638.32 C 358.58 642.68 362.90 646.94 367.29 651.14 C 374.93 658.42 382.40 665.87 389.94 673.25 C 396.40 680.44 404.38 686.76 408.08 695.97 C 411.89 705.51 409.98 715.96 410.03 725.93 C 409.74 739.64 410.00 753.33 411.02 766.99 C 416.56 768.76 421.88 771.66 425.69 776.27 L 425.68 776.33 C 425.65 776.71 425.59 777.47 425.56 777.85 C 435.02 778.38 444.51 777.81 453.99 778.05 C 461.53 778.08 470.01 778.31 476.28 773.42 L 474.98 772.88 C 478.05 770.75 480.60 768.04 482.84 765.08 L 483.30 766.34 C 489.14 759.10 487.78 749.45 488.35 740.83 C 487.75 716.87 488.10 692.89 488.01 668.93 C 487.96 667.08 487.49 665.30 487.11 663.52 C 487.27 656.19 490.74 649.15 495.33 643.52 C 499.92 637.92 505.66 632.46 513.13 631.38 C 531.07 630.71 549.05 631.38 567.00 631.12 C 576.80 631.02 586.60 631.00 596.40 630.99 C 596.82 631.00 597.67 631.02 598.10 631.03 C 600.98 627.16 604.74 624.25 609.05 622.10 Z" />
</g>
<g id="#5a3d9bff">
<path fill="#5a3d9b" opacity="1.00" d=" M 433.70 629.21 C 436.30 627.13 438.66 624.76 440.86 622.27 C 441.54 623.85 440.26 625.16 439.35 626.26 C 437.85 627.85 436.15 629.83 433.70 629.21 Z" />
</g>
<g id="#5851b2ff">
<path fill="#5851b2" opacity="1.00" d=" M 189.23 629.59 C 196.16 631.01 203.51 629.23 209.11 624.95 L 210.58 624.70 C 207.11 629.49 200.66 631.09 195.07 631.70 C 192.79 631.23 188.80 632.19 187.89 629.70 L 189.23 629.59 Z" />
</g>
<g id="#3e3bc3ff">
<path fill="#3e3bc3" opacity="1.00" d=" M 510.89 630.40 C 514.55 629.86 518.25 630.01 521.94 630.00 C 543.61 630.01 565.28 629.98 586.95 630.07 C 590.09 630.19 593.48 629.47 596.40 630.99 C 586.60 631.00 576.80 631.02 567.00 631.12 C 549.05 631.38 531.07 630.71 513.13 631.38 C 512.57 631.14 511.45 630.64 510.89 630.40 Z" />
</g>
<g id="#5246b6ff">
<path fill="#5246b6" opacity="1.00" d=" M 636.56 629.54 C 638.85 630.28 639.46 632.70 640.37 634.65 C 642.81 639.66 642.67 645.70 640.60 650.81 L 639.57 651.21 L 639.65 649.81 C 642.06 643.52 640.65 636.45 636.92 630.98 L 636.56 629.54 Z" />
</g>
<g id="#fea729ff">
<path fill="#fea729" opacity="1.00" d=" M 516.03 649.29 C 519.47 647.72 523.31 647.95 527.00 647.97 C 549.33 648.15 571.67 647.72 593.99 648.25 C 596.54 647.86 598.33 650.37 597.29 652.69 C 596.51 651.32 595.92 649.16 593.94 649.32 C 571.30 649.30 548.65 649.48 526.00 649.12 C 522.82 648.97 519.67 649.43 516.57 650.11 L 516.03 649.29 Z" />
</g>
<g id="#5447b5ff">
<path fill="#5447b5" opacity="1.00" d=" M 367.29 651.14 L 368.74 651.07 C 372.98 653.72 375.96 657.98 379.71 661.27 C 383.48 665.45 388.25 668.75 391.45 673.42 L 389.94 673.25 C 382.40 665.87 374.93 658.42 367.29 651.14 Z" />
<path fill="#5447b5" opacity="1.00" d=" M 505.03 752.77 L 505.84 751.88 C 506.69 758.69 505.47 765.69 503.07 772.07 C 501.61 774.79 500.44 778.11 497.47 779.54 L 497.89 778.02 C 503.69 770.97 504.47 761.51 505.03 752.77 Z" />
</g>
<g id="#fca42dff">
<path fill="#fca42d" opacity="1.00" d=" M 504.27 664.11 C 504.62 662.24 505.13 659.74 507.38 659.42 C 504.46 665.18 505.13 671.81 504.97 678.06 C 505.17 702.96 505.56 727.87 505.03 752.77 C 502.48 749.71 504.09 745.62 503.95 742.05 C 504.15 721.34 503.77 700.63 504.12 679.91 C 504.19 674.64 503.57 669.35 504.27 664.11 Z" />
</g>
<g id="#fba52dff">
<path fill="#fba52d" opacity="1.00" d=" M 487.11 663.52 C 487.49 665.30 487.96 667.08 488.01 668.93 C 488.10 692.89 487.75 716.87 488.35 740.83 C 487.78 749.45 489.14 759.10 483.30 766.34 L 482.84 765.08 C 488.31 755.29 486.68 743.70 487.02 732.95 C 486.58 709.81 486.43 686.66 487.11 663.52 Z" />
</g>
<g id="#508eb9ff">
<path fill="#508eb9" opacity="1.00" d=" M 608.76 664.04 C 614.60 666.25 621.18 666.24 627.08 664.22 C 626.89 682.45 627.17 700.69 626.54 718.92 C 626.23 726.31 627.24 734.10 624.10 741.05 C 619.90 750.86 611.28 757.59 604.17 765.19 C 597.71 771.78 591.34 778.45 585.02 785.16 C 585.49 790.12 586.96 795.33 585.40 800.32 C 582.13 809.76 571.78 816.17 561.87 814.86 C 551.70 812.80 543.48 802.46 545.20 791.94 C 545.86 785.48 550.13 779.68 556.06 777.07 C 559.92 774.77 564.45 774.82 568.78 774.40 C 570.00 774.38 570.58 773.13 571.33 772.38 C 577.09 765.45 583.57 759.15 589.69 752.55 C 595.34 746.55 601.87 741.13 605.81 733.76 C 607.47 730.80 607.95 727.36 607.98 724.03 C 608.08 712.64 607.76 701.25 608.47 689.88 C 609.06 681.28 608.36 672.64 608.76 664.04 Z" />
</g>
<g id="#5043b7ff">
<path fill="#5043b7" opacity="1.00" d=" M 387.66 699.46 L 388.95 699.92 C 393.16 706.02 391.79 713.60 392.05 720.54 C 392.03 721.23 392.00 722.61 391.99 723.30 C 390.03 720.65 391.23 717.09 390.99 714.05 C 391.47 708.92 389.45 704.13 387.66 699.46 Z" />
</g>
<g id="#fda22fff">
<path fill="#fda22f" opacity="1.00" d=" M 392.05 720.54 C 393.94 726.17 392.75 732.19 393.10 738.01 C 392.48 748.00 394.57 757.90 393.99 767.89 C 393.71 768.07 393.16 768.44 392.88 768.63 C 391.79 753.54 391.90 738.41 391.99 723.30 C 392.00 722.61 392.03 721.23 392.05 720.54 Z" />
</g>
<g id="#fa9f31ff">
<path fill="#fa9f31" opacity="1.00" d=" M 450.08 776.71 C 458.47 776.45 467.44 777.31 474.98 772.88 L 476.28 773.42 C 470.01 778.31 461.53 778.08 453.99 778.05 C 444.51 777.81 435.02 778.38 425.56 777.85 C 425.59 777.47 425.65 776.71 425.68 776.33 C 433.77 777.46 441.95 776.64 450.08 776.71 Z" />
</g>
<g id="#f89b31ff">
<path fill="#f89b31" opacity="1.00" d=" M 383.46 778.26 C 384.17 782.18 382.40 786.02 382.95 789.95 C 383.31 793.28 383.93 796.64 385.30 799.73 C 386.67 802.82 389.51 804.82 391.73 807.26 C 392.42 807.89 392.71 808.68 392.60 809.65 C 382.39 803.50 378.00 788.91 383.46 778.26 Z" />
</g>
<g id="#5a3f99ff">
<path fill="#5a3f99" opacity="1.00" d=" M 133.06 791.12 C 136.61 793.53 137.36 798.08 139.53 801.54 C 140.38 803.82 142.83 806.15 141.62 808.71 C 138.36 803.07 135.40 797.21 133.06 791.12 Z" />
</g>
<g id="#fca22bff">
<path fill="#fca22b" opacity="1.00" d=" M 425.63 799.68 C 424.34 797.36 426.35 794.08 428.93 794.04 C 439.61 793.78 450.30 794.01 460.99 793.83 C 462.88 793.75 464.69 794.37 466.49 794.87 C 453.76 795.05 441.01 795.35 428.29 795.22 C 426.82 796.28 426.40 798.14 425.63 799.68 Z" />
</g>
<g id="#4f3191ff">
<path fill="#4f3191" opacity="1.00" d=" M 142.87 810.16 C 144.36 810.04 145.80 811.97 144.39 813.08 C 143.18 812.37 142.67 811.40 142.87 810.16 Z" />
</g>
<g id="#5e439bff">
<path fill="#5e439b" opacity="1.00" d=" M 816.65 873.67 C 820.08 871.85 823.17 868.85 827.29 868.85 C 817.53 875.48 807.03 881.12 796.03 885.38 C 795.64 885.21 794.85 884.89 794.45 884.72 C 801.88 881.10 809.57 877.99 816.65 873.67 Z" />
</g>
<g id="#5f449bff">
<path fill="#5f449b" opacity="1.00" d=" M 205.12 873.59 C 207.38 872.42 209.45 874.62 211.46 875.41 C 219.09 879.84 227.40 882.82 235.34 886.59 L 234.14 887.46 C 224.09 883.71 214.28 879.18 205.12 873.59 Z" />
</g>
<g id="#553997ff">
<path fill="#553997" opacity="1.00" d=" M 237.19 888.43 C 238.59 888.11 240.07 887.91 241.46 888.47 C 251.08 891.39 260.88 893.91 270.87 895.19 C 270.76 895.56 270.54 896.31 270.44 896.68 C 259.14 894.95 247.88 892.49 237.19 888.43 Z" />
</g>
<g id="#5d429bff">
<path fill="#5d429b" opacity="1.00" d=" M 774.15 890.96 C 776.30 890.52 778.68 889.32 780.74 890.73 C 772.33 893.58 763.57 895.20 754.87 896.80 C 754.61 896.37 754.08 895.52 753.82 895.09 C 760.73 894.48 767.48 892.81 774.15 890.96 Z" />
</g>
<g id="#5d449bff">
<path fill="#5d449b" opacity="1.00" d=" M 271.12 896.80 C 273.96 895.54 277.77 894.90 280.42 896.87 C 279.20 897.12 277.96 897.33 276.73 897.51 C 274.85 897.31 272.98 897.00 271.12 896.80 Z" />
</g>
</svg>
